Wayfinder_Icons.ufo
<glyph name="uniE000" format="2">
  <advance width="1000"/>
  <unicode hex="E000"/>
  <outline>
    <contour>
      <point x="552" y="816" type="line"/>
      <point x="693" y="791"/>
      <point x="800" y="668"/>
      <point x="800" y="520" type="curve" smooth="yes"/>
      <point x="800" y="354"/>
      <point x="666" y="220"/>
      <point x="500" y="220" type="curve" smooth="yes"/>
      <point x="334" y="220"/>
      <point x="200" y="354"/>
      <point x="200" y="520" type="curve" smooth="yes"/>
      <point x="200" y="668"/>
      <point x="307" y="791"/>
      <point x="448" y="816" type="curve"/>
      <point x="448" y="817" type="line"/>
      <point x="207" y="791"/>
      <point x="20" y="587"/>
      <point x="20" y="340" type="curve" smooth="yes"/>
      <point x="20" y="84"/>
      <point x="221" y="-126"/>
      <point x="474" y="-139" type="curve"/>
      <point x="474" y="-138" type="line"/>
      <point x="403" y="-126"/>
      <point x="350" y="-64"/>
      <point x="350" y="10" type="curve" smooth="yes"/>
      <point x="350" y="93"/>
      <point x="417" y="160"/>
      <point x="500" y="160" type="curve" smooth="yes"/>
      <point x="583" y="160"/>
      <point x="650" y="93"/>
      <point x="650" y="10" type="curve" smooth="yes"/>
      <point x="650" y="-64"/>
      <point x="597" y="-126"/>
      <point x="526" y="-138" type="curve"/>
      <point x="526" y="-139" type="line"/>
      <point x="779" y="-126"/>
      <point x="980" y="84"/>
      <point x="980" y="340" type="curve" smooth="yes"/>
      <point x="980" y="587"/>
      <point x="793" y="791"/>
      <point x="552" y="817" type="curve"/>
    </contour>
  </outline>
</glyph>
<glyph name="uniE008" format="2">
  <advance width="1000"/>
  <unicode hex="E008"/>
  <outline>
    <contour>
      <point x="780" y="540" type="curve" smooth="yes"/>
      <point x="780" y="694.7555555555555"/>
      <point x="654.7555555555555" y="820"/>
      <point x="500" y="820" type="curve" smooth="yes"/>
      <point x="345.24444444444447" y="820"/>
      <point x="220" y="694.7555555555555"/>
      <point x="220" y="540" type="curve" smooth="yes"/>
      <point x="220" y="385.24444444444447"/>
      <point x="345.24444444444447" y="260"/>
      <point x="500" y="260" type="curve" smooth="yes"/>
      <point x="654.7555555555555" y="260"/>
      <point x="780" y="385.24444444444447"/>
    </contour>
    <contour>
      <point x="645" y="5" type="curve" smooth="yes"/>
      <point x="645" y="85.35555555555555"/>
      <point x="580.3555555555556" y="150"/>
      <point x="500" y="150" type="curve" smooth="yes"/>
      <point x="419.64444444444445" y="150"/>
      <point x="355" y="85.35555555555555"/>
      <point x="355" y="5" type="curve" smooth="yes"/>
      <point x="355" y="-75.35555555555555"/>
      <point x="419.64444444444445" y="-140"/>
      <point x="500" y="-140" type="curve" smooth="yes"/>
      <point x="580.3555555555556" y="-140"/>
      <point x="645" y="-75.35555555555555"/>
    </contour>
  </outline>
</glyph>
<glyph name="uniE009" format="2">
  <advance width="1000"/>
  <unicode hex="E009"/>
  <outline>
    <contour>
      <point x="980" y="340" type="curve" smooth="yes"/>
      <point x="980" y="604.9777777777778"/>
      <point x="764.9777777777778" y="820"/>
      <point x="500" y="820" type="curve" smooth="yes"/>
      <point x="235.02222222222224" y="820"/>
      <point x="20" y="604.9777777777778"/>
      <point x="20" y="340" type="curve" smooth="yes"/>
      <point x="20" y="75.02222222222224"/>
      <point x="235.02222222222224" y="-140"/>
      <point x="500" y="-140" type="curve" smooth="yes"/>
      <point x="764.9777777777778" y="-140"/>
      <point x="980" y="75.02222222222224"/>
    </contour>
    <contour>
      <point x="720" y="495" type="curve" smooth="yes"/>
      <point x="720" y="373.31111111111113"/>
      <point x="621.6888888888889" y="275"/>
      <point x="500" y="275" type="curve" smooth="yes"/>
      <point x="378.31111111111113" y="275"/>
      <point x="280" y="373.31111111111113"/>
      <point x="280" y="495" type="curve" smooth="yes"/>
      <point x="280" y="616.6888888888889"/>
      <point x="378.31111111111113" y="715"/>
      <point x="500" y="715" type="curve" smooth="yes"/>
      <point x="621.6888888888889" y="715"/>
      <point x="720" y="616.6888888888889"/>
    </contour>
    <contour>
      <point x="610" y="70" type="curve" smooth="yes"/>
      <point x="610" y="8.933333333333337"/>
      <point x="561.0666666666666" y="-40"/>
      <point x="500" y="-40" type="curve" smooth="yes"/>
      <point x="438.93333333333334" y="-40"/>
      <point x="390" y="8.933333333333337"/>
      <point x="390" y="70" type="curve" smooth="yes"/>
      <point x="390" y="131.06666666666666"/>
      <point x="438.93333333333334" y="180"/>
      <point x="500" y="180" type="curve" smooth="yes"/>
      <point x="561.0666666666666" y="180"/>
      <point x="610" y="131.06666666666666"/>
    </contour>
  </outline>
</glyph>
<glyph name="uniE00A" format="2">
  <advance width="1000"/>
  <unicode hex="E00A"/>
  <outline>
    <contour>
      <point x="900" y="340" type="curve" smooth="yes"/>
      <point x="900" y="560.8888888888889"/>
      <point x="720.8888888888889" y="740"/>
      <point x="500" y="740" type="curve" smooth="yes"/>
      <point x="279.1111111111111" y="740"/>
      <point x="100" y="560.8888888888889"/>
      <point x="100" y="340" type="curve" smooth="yes"/>
      <point x="100" y="119.11111111111111"/>
      <point x="279.1111111111111" y="-60"/>
      <point x="500" y="-60" type="curve" smooth="yes"/>
      <point x="720.8888888888889" y="-60"/>
      <point x="900" y="119.11111111111111"/>
    </contour>
  </outline>
</glyph>
<glyph name="uniE00B" format="2">
  <advance width="1000"/>
  <unicode hex="E00B"/>
  <outline>
    <contour>
      <point x="900" y="340" type="curve" smooth="yes"/>
      <point x="900" y="560.8888888888889"/>
      <point x="720.8888888888889" y="740"/>
      <point x="500" y="740" type="curve" smooth="yes"/>
      <point x="279.1111111111111" y="740"/>
      <point x="100" y="560.8888888888889"/>
      <point x="100" y="340" type="curve" smooth="yes"/>
      <point x="100" y="119.11111111111111"/>
      <point x="279.1111111111111" y="-60"/>
      <point x="500" y="-60" type="curve" smooth="yes"/>
      <point x="720.8888888888889" y="-60"/>
      <point x="900" y="119.11111111111111"/>
    </contour>
    <contour>
      <point x="750" y="340" type="curve" smooth="yes"/>
      <point x="750" y="201.77777777777777"/>
      <point x="638.2222222222222" y="90"/>
      <point x="500" y="90" type="curve" smooth="yes"/>
      <point x="361.77777777777777" y="90"/>
      <point x="250" y="201.77777777777777"/>
      <point x="250" y="340" type="curve" smooth="yes"/>
      <point x="250" y="478.22222222222223"/>
      <point x="361.77777777777777" y="590"/>
      <point x="500" y="590" type="curve" smooth="yes"/>
      <point x="638.2222222222222" y="590"/>
      <point x="750" y="478.22222222222223"/>
    </contour>
  </outline>
</glyph>
<glyph name="uniE00C" format="2">
  <advance width="1000"/>
  <unicode hex="E00C"/>
  <outline>
    <contour>
      <point x="900" y="340" type="curve" smooth="yes"/>
      <point x="900" y="560.8888888888889"/>
      <point x="720.8888888888889" y="740"/>
      <point x="500" y="740" type="curve" smooth="yes"/>
      <point x="279.1111111111111" y="740"/>
      <point x="100" y="560.8888888888889"/>
      <point x="100" y="340" type="curve" smooth="yes"/>
      <point x="100" y="119.11111111111111"/>
      <point x="279.1111111111111" y="-60"/>
      <point x="500" y="-60" type="curve" smooth="yes"/>
      <point x="720.8888888888889" y="-60"/>
      <point x="900" y="119.11111111111111"/>
    </contour>
    <contour>
      <point x="675" y="465" type="curve" smooth="yes"/>
      <point x="675" y="368.1111111111111"/>
      <point x="596.8888888888889" y="290"/>
      <point x="500" y="290" type="curve" smooth="yes"/>
      <point x="403.1111111111111" y="290"/>
      <point x="325" y="368.1111111111111"/>
      <point x="325" y="465" type="curve" smooth="yes"/>
      <point x="325" y="561.8888888888889"/>
      <point x="403.1111111111111" y="640"/>
      <point x="500" y="640" type="curve" smooth="yes"/>
      <point x="596.8888888888889" y="640"/>
      <point x="675" y="561.8888888888889"/>
    </contour>
    <contour>
      <point x="590" y="120" type="curve" smooth="yes"/>
      <point x="590" y="69.95555555555555"/>
      <point x="550.0444444444445" y="30"/>
      <point x="500" y="30" type="curve" smooth="yes"/>
      <point x="449.9555555555556" y="30"/>
      <point x="410" y="69.95555555555555"/>
      <point x="410" y="120" type="curve" smooth="yes"/>
      <point x="410" y="170.04444444444445"/>
      <point x="449.9555555555556" y="210"/>
      <point x="500" y="210" type="curve" smooth="yes"/>
      <point x="550.0444444444445" y="210"/>
      <point x="590" y="170.04444444444445"/>
    </contour>
  </outline>
</glyph>
<glyph name="uniE00D" format="2">
  <advance width="1000"/>
  <unicode hex="E00D"/>
  <outline>
    <contour>
      <point x="980" y="340" type="curve" smooth="yes"/>
      <point x="980" y="604.9777777777778"/>
      <point x="764.9777777777778" y="820"/>
      <point x="500" y="820" type="curve" smooth="yes"/>
      <point x="235.02222222222224" y="820"/>
      <point x="20" y="604.9777777777778"/>
      <point x="20" y="340" type="curve" smooth="yes"/>
      <point x="20" y="75.02222222222224"/>
      <point x="235.02222222222224" y="-140"/>
      <point x="500" y="-140" type="curve" smooth="yes"/>
      <point x="764.9777777777778" y="-140"/>
      <point x="980" y="75.02222222222224"/>
    </contour>
    <contour>
      <point x="460" y="220" type="curve" smooth="yes"/>
      <point x="460" y="142.4"/>
      <point x="397.6" y="80"/>
      <point x="320" y="80" type="curve" smooth="yes"/>
      <point x="242.4" y="80"/>
      <point x="180" y="142.4"/>
      <point x="180" y="220" type="curve" smooth="yes"/>
      <point x="180" y="297.6"/>
      <point x="242.4" y="360"/>
      <point x="320" y="360" type="curve" smooth="yes"/>
      <point x="397.6" y="360"/>
      <point x="460" y="297.6"/>
    </contour>
    <contour>
      <point x="840" y="400" type="curve" smooth="yes"/>
      <point x="840" y="322.4"/>
      <point x="777.6" y="260"/>
      <point x="700" y="260" type="curve" smooth="yes"/>
      <point x="622.4" y="260"/>
      <point x="560" y="322.4"/>
      <point x="560" y="400" type="curve" smooth="yes"/>
      <point x="560" y="477.6"/>
      <point x="622.4" y="540"/>
      <point x="700" y="540" type="curve" smooth="yes"/>
      <point x="777.6" y="540"/>
      <point x="840" y="477.6"/>
    </contour>
  </outline>
</glyph>
<glyph name="uniE010" format="2">
  <advance width="1000"/>
  <unicode hex="E010"/>
  <outline>
    <contour>
      <point x="570" y="280" type="curve" smooth="yes"/>
      <point x="570" y="319.02222222222224"/>
      <point x="539.0222222222222" y="350"/>
      <point x="500" y="350" type="curve" smooth="yes"/>
      <point x="460.97777777777776" y="350"/>
      <point x="430" y="319.02222222222224"/>
      <point x="430" y="280" type="curve" smooth="yes"/>
      <point x="430" y="240.97777777777776"/>
      <point x="460.97777777777776" y="210"/>
      <point x="500" y="210" type="curve" smooth="yes"/>
      <point x="539.0222222222222" y="210"/>
      <point x="570" y="240.97777777777776"/>
    </contour>
    <contour>
      <point x="625" y="695" type="curve" smooth="yes"/>
      <point x="625" y="764.3333333333334"/>
      <point x="569.3333333333334" y="820"/>
      <point x="500" y="820" type="curve" smooth="yes"/>
      <point x="430.6666666666667" y="820"/>
      <point x="375" y="764.3333333333334"/>
      <point x="375" y="695" type="curve" smooth="yes"/>
      <point x="375" y="625.6666666666666"/>
      <point x="430.6666666666667" y="570"/>
      <point x="500" y="570" type="curve" smooth="yes"/>
      <point x="569.3333333333334" y="570"/>
      <point x="625" y="625.6666666666666"/>
    </contour>
    <contour>
      <point x="595" y="-45" type="curve" smooth="yes"/>
      <point x="595" y="7.799999999999997"/>
      <point x="552.8" y="50"/>
      <point x="500" y="50" type="curve" smooth="yes"/>
      <point x="447.2" y="50"/>
      <point x="405" y="7.799999999999997"/>
      <point x="405" y="-45" type="curve" smooth="yes"/>
      <point x="405" y="-97.8"/>
      <point x="447.2" y="-140"/>
      <point x="500" y="-140" type="curve" smooth="yes"/>
      <point x="552.8" y="-140"/>
      <point x="595" y="-97.8"/>
    </contour>
  </outline>
</glyph>
<glyph name="uniE011" format="2">
  <advance width="1000"/>
  <unicode hex="E011"/>
  <outline>
    <contour>
      <point x="770" y="340" type="curve" smooth="yes"/>
      <point x="770" y="489.2444444444444"/>
      <point x="649.2444444444444" y="610"/>
      <point x="500" y="610" type="curve" smooth="yes"/>
      <point x="350.7555555555556" y="610"/>
      <point x="230" y="489.2444444444444"/>
      <point x="230" y="340" type="curve" smooth="yes"/>
      <point x="230" y="190.75555555555556"/>
      <point x="350.7555555555556" y="70"/>
      <point x="500" y="70" type="curve" smooth="yes"/>
      <point x="649.2444444444444" y="70"/>
      <point x="770" y="190.75555555555556"/>
    </contour>
    <contour>
      <point x="170" y="570" type="curve" smooth="yes"/>
      <point x="170" y="614.5333333333333"/>
      <point x="134.53333333333333" y="650"/>
      <point x="90" y="650" type="curve" smooth="yes"/>
      <point x="45.46666666666667" y="650"/>
      <point x="10" y="614.5333333333333"/>
      <point x="10" y="570" type="curve" smooth="yes"/>
      <point x="10" y="525.4666666666667"/>
      <point x="45.46666666666667" y="490"/>
      <point x="90" y="490" type="curve" smooth="yes"/>
      <point x="134.53333333333333" y="490"/>
      <point x="170" y="525.4666666666667"/>
    </contour>
    <contour>
      <point x="170" y="340" type="curve" smooth="yes"/>
      <point x="170" y="384.5333333333333"/>
      <point x="134.53333333333333" y="420"/>
      <point x="90" y="420" type="curve" smooth="yes"/>
      <point x="45.46666666666667" y="420"/>
      <point x="10" y="384.5333333333333"/>
      <point x="10" y="340" type="curve" smooth="yes"/>
      <point x="10" y="295.4666666666667"/>
      <point x="45.46666666666667" y="260"/>
      <point x="90" y="260" type="curve" smooth="yes"/>
      <point x="134.53333333333333" y="260"/>
      <point x="170" y="295.4666666666667"/>
    </contour>
    <contour>
      <point x="170" y="110" type="curve" smooth="yes"/>
      <point x="170" y="154.53333333333333"/>
      <point x="134.53333333333333" y="190"/>
      <point x="90" y="190" type="curve" smooth="yes"/>
      <point x="45.46666666666667" y="190"/>
      <point x="10" y="154.53333333333333"/>
      <point x="10" y="110" type="curve" smooth="yes"/>
      <point x="10" y="65.46666666666667"/>
      <point x="45.46666666666667" y="30"/>
      <point x="90" y="30" type="curve" smooth="yes"/>
      <point x="134.53333333333333" y="30"/>
      <point x="170" y="65.46666666666667"/>
    </contour>
    <contour>
      <point x="990" y="570" type="curve" smooth="yes"/>
      <point x="990" y="614.5333333333333"/>
      <point x="954.5333333333333" y="650"/>
      <point x="910" y="650" type="curve" smooth="yes"/>
      <point x="865.4666666666667" y="650"/>
      <point x="830" y="614.5333333333333"/>
      <point x="830" y="570" type="curve" smooth="yes"/>
      <point x="830" y="525.4666666666667"/>
      <point x="865.4666666666667" y="490"/>
      <point x="910" y="490" type="curve" smooth="yes"/>
      <point x="954.5333333333333" y="490"/>
      <point x="990" y="525.4666666666667"/>
    </contour>
    <contour>
      <point x="990" y="340" type="curve" smooth="yes"/>
      <point x="990" y="384.5333333333333"/>
      <point x="954.5333333333333" y="420"/>
      <point x="910" y="420" type="curve" smooth="yes"/>
      <point x="865.4666666666667" y="420"/>
      <point x="830" y="384.5333333333333"/>
      <point x="830" y="340" type="curve" smooth="yes"/>
      <point x="830" y="295.4666666666667"/>
      <point x="865.4666666666667" y="260"/>
      <point x="910" y="260" type="curve" smooth="yes"/>
      <point x="954.5333333333333" y="260"/>
      <point x="990" y="295.4666666666667"/>
    </contour>
    <contour>
      <point x="990" y="110" type="curve" smooth="yes"/>
      <point x="990" y="154.53333333333333"/>
      <point x="954.5333333333333" y="190"/>
      <point x="910" y="190" type="curve" smooth="yes"/>
      <point x="865.4666666666667" y="190"/>
      <point x="830" y="154.53333333333333"/>
      <point x="830" y="110" type="curve" smooth="yes"/>
      <point x="830" y="65.46666666666667"/>
      <point x="865.4666666666667" y="30"/>
      <point x="910" y="30" type="curve" smooth="yes"/>
      <point x="954.5333333333333" y="30"/>
      <point x="990" y="65.46666666666667"/>
    </contour>
  </outline>
</glyph>
<glyph name="uniE012" format="2">
  <advance width="1000"/>
  <unicode hex="E012"/>
  <outline>
    <contour>
      <point x="650" y="590" type="curve" smooth="yes"/>
      <point x="650" y="673.1111111111111"/>
      <point x="583.1111111111111" y="740"/>
      <point x="500" y="740" type="curve" smooth="yes"/>
      <point x="416.8888888888889" y="740"/>
      <point x="350" y="673.1111111111111"/>
      <point x="350" y="590" type="curve" smooth="yes"/>
      <point x="350" y="506.8888888888889"/>
      <point x="416.8888888888889" y="440"/>
      <point x="500" y="440" type="curve" smooth="yes"/>
      <point x="583.1111111111111" y="440"/>
      <point x="650" y="506.8888888888889"/>
    </contour>
    <contour>
      <point x="390" y="140" type="curve" smooth="yes"/>
      <point x="390" y="223.11111111111111"/>
      <point x="323.1111111111111" y="290"/>
      <point x="240" y="290" type="curve" smooth="yes"/>
      <point x="156.88888888888889" y="290"/>
      <point x="90" y="223.11111111111111"/>
      <point x="90" y="140" type="curve" smooth="yes"/>
      <point x="90" y="56.888888888888886"/>
      <point x="156.88888888888889" y="-10"/>
      <point x="240" y="-10" type="curve" smooth="yes"/>
      <point x="323.1111111111111" y="-10"/>
      <point x="390" y="56.888888888888886"/>
    </contour>
    <contour>
      <point x="910" y="140" type="curve" smooth="yes"/>
      <point x="910" y="223.11111111111111"/>
      <point x="843.1111111111111" y="290"/>
      <point x="760" y="290" type="curve" smooth="yes"/>
      <point x="676.8888888888889" y="290"/>
      <point x="610" y="223.11111111111111"/>
      <point x="610" y="140" type="curve" smooth="yes"/>
      <point x="610" y="56.888888888888886"/>
      <point x="676.8888888888889" y="-10"/>
      <point x="760" y="-10" type="curve" smooth="yes"/>
      <point x="843.1111111111111" y="-10"/>
      <point x="910" y="56.888888888888886"/>
    </contour>
    <contour>
      <point x="650" y="590" type="curve" smooth="yes"/>
      <point x="650" y="673.1111111111111"/>
      <point x="583.1111111111111" y="740"/>
      <point x="500" y="740" type="curve" smooth="yes"/>
      <point x="416.8888888888889" y="740"/>
      <point x="350" y="673.1111111111111"/>
      <point x="350" y="590" type="curve" smooth="yes"/>
      <point x="350" y="506.8888888888889"/>
      <point x="416.8888888888889" y="440"/>
      <point x="500" y="440" type="curve" smooth="yes"/>
      <point x="583.1111111111111" y="440"/>
      <point x="650" y="506.8888888888889"/>
    </contour>
    <contour>
      <point x="390" y="140" type="curve" smooth="yes"/>
      <point x="390" y="223.11111111111111"/>
      <point x="323.1111111111111" y="290"/>
      <point x="240" y="290" type="curve" smooth="yes"/>
      <point x="156.88888888888889" y="290"/>
      <point x="90" y="223.11111111111111"/>
      <point x="90" y="140" type="curve" smooth="yes"/>
      <point x="90" y="56.888888888888886"/>
      <point x="156.88888888888889" y="-10"/>
      <point x="240" y="-10" type="curve" smooth="yes"/>
      <point x="323.1111111111111" y="-10"/>
      <point x="390" y="56.888888888888886"/>
    </contour>
    <contour>
      <point x="910" y="140" type="curve" smooth="yes"/>
      <point x="910" y="223.11111111111111"/>
      <point x="843.1111111111111" y="290"/>
      <point x="760" y="290" type="curve" smooth="yes"/>
      <point x="676.8888888888889" y="290"/>
      <point x="610" y="223.11111111111111"/>
      <point x="610" y="140" type="curve" smooth="yes"/>
      <point x="610" y="56.888888888888886"/>
      <point x="676.8888888888889" y="-10"/>
      <point x="760" y="-10" type="curve" smooth="yes"/>
      <point x="843.1111111111111" y="-10"/>
      <point x="910" y="56.888888888888886"/>
    </contour>
  </outline>
</glyph>
<glyph name="uniE013" format="2">
  <advance width="1000"/>
  <unicode hex="E013"/>
  <outline>
    <contour>
      <point x="440" y="90" type="curve" smooth="yes"/>
      <point x="440" y="195.15555555555557"/>
      <point x="355.15555555555557" y="280"/>
      <point x="250" y="280" type="curve" smooth="yes"/>
      <point x="144.84444444444443" y="280"/>
      <point x="60" y="195.15555555555557"/>
      <point x="60" y="90" type="curve" smooth="yes"/>
      <point x="60" y="-15.155555555555551"/>
      <point x="144.84444444444443" y="-100"/>
      <point x="250" y="-100" type="curve" smooth="yes"/>
      <point x="355.15555555555557" y="-100"/>
      <point x="440" y="-15.155555555555551"/>
    </contour>
    <contour>
      <point x="940" y="90" type="curve" smooth="yes"/>
      <point x="940" y="195.15555555555557"/>
      <point x="855.1555555555556" y="280"/>
      <point x="750" y="280" type="curve" smooth="yes"/>
      <point x="644.8444444444444" y="280"/>
      <point x="560" y="195.15555555555557"/>
      <point x="560" y="90" type="curve" smooth="yes"/>
      <point x="560" y="-15.155555555555551"/>
      <point x="644.8444444444444" y="-100"/>
      <point x="750" y="-100" type="curve" smooth="yes"/>
      <point x="855.1555555555556" y="-100"/>
      <point x="940" y="-15.155555555555551"/>
    </contour>
    <contour>
      <point x="440" y="590" type="curve" smooth="yes"/>
      <point x="440" y="695.1555555555556"/>
      <point x="355.15555555555557" y="780"/>
      <point x="250" y="780" type="curve" smooth="yes"/>
      <point x="144.84444444444443" y="780"/>
      <point x="60" y="695.1555555555556"/>
      <point x="60" y="590" type="curve" smooth="yes"/>
      <point x="60" y="484.84444444444443"/>
      <point x="144.84444444444443" y="400"/>
      <point x="250" y="400" type="curve" smooth="yes"/>
      <point x="355.15555555555557" y="400"/>
      <point x="440" y="484.84444444444443"/>
    </contour>
    <contour>
      <point x="940" y="590" type="curve" smooth="yes"/>
      <point x="940" y="695.1555555555556"/>
      <point x="855.1555555555556" y="780"/>
      <point x="750" y="780" type="curve" smooth="yes"/>
      <point x="644.8444444444444" y="780"/>
      <point x="560" y="695.1555555555556"/>
      <point x="560" y="590" type="curve" smooth="yes"/>
      <point x="560" y="484.84444444444443"/>
      <point x="644.8444444444444" y="400"/>
      <point x="750" y="400" type="curve" smooth="yes"/>
      <point x="855.1555555555556" y="400"/>
      <point x="940" y="484.84444444444443"/>
    </contour>
    <contour>
      <point x="870" y="590" type="curve" smooth="yes"/>
      <point x="870" y="523.4222222222222"/>
      <point x="816.5777777777778" y="470"/>
      <point x="750" y="470" type="curve" smooth="yes"/>
      <point x="683.4222222222222" y="470"/>
      <point x="630" y="523.4222222222222"/>
      <point x="630" y="590" type="curve" smooth="yes"/>
      <point x="630" y="656.5777777777778"/>
      <point x="683.4222222222222" y="710"/>
      <point x="750" y="710" type="curve" smooth="yes"/>
      <point x="816.5777777777778" y="710"/>
      <point x="870" y="656.5777777777778"/>
    </contour>
  </outline>
</glyph>
<glyph name="uniE014" format="2">
  <advance width="1000"/>
  <unicode hex="E014"/>
  <outline>
    <contour>
      <point x="310" y="10" type="curve" smooth="yes"/>
      <point x="310" y="87.6"/>
      <point x="247.6" y="150"/>
      <point x="170" y="150" type="curve" smooth="yes"/>
      <point x="92.4" y="150"/>
      <point x="30" y="87.6"/>
      <point x="30" y="10" type="curve" smooth="yes"/>
      <point x="30" y="-67.6"/>
      <point x="92.4" y="-130"/>
      <point x="170" y="-130" type="curve" smooth="yes"/>
      <point x="247.6" y="-130"/>
      <point x="310" y="-67.6"/>
    </contour>
    <contour>
      <point x="640" y="10" type="curve" smooth="yes"/>
      <point x="640" y="87.6"/>
      <point x="577.6" y="150"/>
      <point x="500" y="150" type="curve" smooth="yes"/>
      <point x="422.4" y="150"/>
      <point x="360" y="87.6"/>
      <point x="360" y="10" type="curve" smooth="yes"/>
      <point x="360" y="-67.6"/>
      <point x="422.4" y="-130"/>
      <point x="500" y="-130" type="curve" smooth="yes"/>
      <point x="577.6" y="-130"/>
      <point x="640" y="-67.6"/>
    </contour>
    <contour>
      <point x="970" y="10" type="curve" smooth="yes"/>
      <point x="970" y="87.6"/>
      <point x="907.6" y="150"/>
      <point x="830" y="150" type="curve" smooth="yes"/>
      <point x="752.4" y="150"/>
      <point x="690" y="87.6"/>
      <point x="690" y="10" type="curve" smooth="yes"/>
      <point x="690" y="-67.6"/>
      <point x="752.4" y="-130"/>
      <point x="830" y="-130" type="curve" smooth="yes"/>
      <point x="907.6" y="-130"/>
      <point x="970" y="-67.6"/>
    </contour>
    <contour>
      <point x="310" y="340" type="curve" smooth="yes"/>
      <point x="310" y="417.6"/>
      <point x="247.6" y="480"/>
      <point x="170" y="480" type="curve" smooth="yes"/>
      <point x="92.4" y="480"/>
      <point x="30" y="417.6"/>
      <point x="30" y="340" type="curve" smooth="yes"/>
      <point x="30" y="262.4"/>
      <point x="92.4" y="200"/>
      <point x="170" y="200" type="curve" smooth="yes"/>
      <point x="247.6" y="200"/>
      <point x="310" y="262.4"/>
    </contour>
    <contour>
      <point x="640" y="340" type="curve" smooth="yes"/>
      <point x="640" y="417.6"/>
      <point x="577.6" y="480"/>
      <point x="500" y="480" type="curve" smooth="yes"/>
      <point x="422.4" y="480"/>
      <point x="360" y="417.6"/>
      <point x="360" y="340" type="curve" smooth="yes"/>
      <point x="360" y="262.4"/>
      <point x="422.4" y="200"/>
      <point x="500" y="200" type="curve" smooth="yes"/>
      <point x="577.6" y="200"/>
      <point x="640" y="262.4"/>
    </contour>
    <contour>
      <point x="970" y="670" type="curve" smooth="yes"/>
      <point x="970" y="747.6"/>
      <point x="907.6" y="810"/>
      <point x="830" y="810" type="curve" smooth="yes"/>
      <point x="752.4" y="810"/>
      <point x="690" y="747.6"/>
      <point x="690" y="670" type="curve" smooth="yes"/>
      <point x="690" y="592.4"/>
      <point x="752.4" y="530"/>
      <point x="830" y="530" type="curve" smooth="yes"/>
      <point x="907.6" y="530"/>
      <point x="970" y="592.4"/>
    </contour>
    <contour>
      <point x="910" y="670" type="curve" smooth="yes"/>
      <point x="910" y="625.4666666666667"/>
      <point x="874.5333333333333" y="590"/>
      <point x="830" y="590" type="curve" smooth="yes"/>
      <point x="785.4666666666667" y="590"/>
      <point x="750" y="625.4666666666667"/>
      <point x="750" y="670" type="curve" smooth="yes"/>
      <point x="750" y="714.5333333333333"/>
      <point x="785.4666666666667" y="750"/>
      <point x="830" y="750" type="curve" smooth="yes"/>
      <point x="874.5333333333333" y="750"/>
      <point x="910" y="714.5333333333333"/>
    </contour>
    <contour>
      <point x="640" y="670" type="curve" smooth="yes"/>
      <point x="640" y="747.6"/>
      <point x="577.6" y="810"/>
      <point x="500" y="810" type="curve" smooth="yes"/>
      <point x="422.4" y="810"/>
      <point x="360" y="747.6"/>
      <point x="360" y="670" type="curve" smooth="yes"/>
      <point x="360" y="592.4"/>
      <point x="422.4" y="530"/>
      <point x="500" y="530" type="curve" smooth="yes"/>
      <point x="577.6" y="530"/>
      <point x="640" y="592.4"/>
    </contour>
    <contour>
      <point x="580" y="670" type="curve" smooth="yes"/>
      <point x="580" y="625.4666666666667"/>
      <point x="544.5333333333333" y="590"/>
      <point x="500" y="590" type="curve" smooth="yes"/>
      <point x="455.4666666666667" y="590"/>
      <point x="420" y="625.4666666666667"/>
      <point x="420" y="670" type="curve" smooth="yes"/>
      <point x="420" y="714.5333333333333"/>
      <point x="455.4666666666667" y="750"/>
      <point x="500" y="750" type="curve" smooth="yes"/>
      <point x="544.5333333333333" y="750"/>
      <point x="580" y="714.5333333333333"/>
    </contour>
    <contour>
      <point x="970" y="340" type="curve" smooth="yes"/>
      <point x="970" y="417.6"/>
      <point x="907.6" y="480"/>
      <point x="830" y="480" type="curve" smooth="yes"/>
      <point x="752.4" y="480"/>
      <point x="690" y="417.6"/>
      <point x="690" y="340" type="curve" smooth="yes"/>
      <point x="690" y="262.4"/>
      <point x="752.4" y="200"/>
      <point x="830" y="200" type="curve" smooth="yes"/>
      <point x="907.6" y="200"/>
      <point x="970" y="262.4"/>
    </contour>
    <contour>
      <point x="910" y="340" type="curve" smooth="yes"/>
      <point x="910" y="295.4666666666667"/>
      <point x="874.5333333333333" y="260"/>
      <point x="830" y="260" type="curve" smooth="yes"/>
      <point x="785.4666666666667" y="260"/>
      <point x="750" y="295.4666666666667"/>
      <point x="750" y="340" type="curve" smooth="yes"/>
      <point x="750" y="384.5333333333333"/>
      <point x="785.4666666666667" y="420"/>
      <point x="830" y="420" type="curve" smooth="yes"/>
      <point x="874.5333333333333" y="420"/>
      <point x="910" y="384.5333333333333"/>
    </contour>
    <contour>
      <point x="310" y="670" type="curve" smooth="yes"/>
      <point x="310" y="747.6"/>
      <point x="247.6" y="810"/>
      <point x="170" y="810" type="curve" smooth="yes"/>
      <point x="92.4" y="810"/>
      <point x="30" y="747.6"/>
      <point x="30" y="670" type="curve" smooth="yes"/>
      <point x="30" y="592.4"/>
      <point x="92.4" y="530"/>
      <point x="170" y="530" type="curve" smooth="yes"/>
      <point x="247.6" y="530"/>
      <point x="310" y="592.4"/>
    </contour>
    <contour>
      <point x="250" y="670" type="curve" smooth="yes"/>
      <point x="250" y="625.4666666666667"/>
      <point x="214.53333333333333" y="590"/>
      <point x="170" y="590" type="curve" smooth="yes"/>
      <point x="125.46666666666667" y="590"/>
      <point x="90" y="625.4666666666667"/>
      <point x="90" y="670" type="curve" smooth="yes"/>
      <point x="90" y="714.5333333333333"/>
      <point x="125.46666666666667" y="750"/>
      <point x="170" y="750" type="curve" smooth="yes"/>
      <point x="214.53333333333333" y="750"/>
      <point x="250" y="714.5333333333333"/>
    </contour>
  </outline>
</glyph>
<glyph name="uniE015" format="2">
  <advance width="1000"/>
  <unicode hex="E015"/>
  <outline>
    <contour>
      <point x="581" y="421" type="curve"/>
      <point x="621" y="380"/>
      <point x="678" y="355"/>
      <point x="740" y="355" type="curve" smooth="yes"/>
      <point x="864" y="355"/>
      <point x="965" y="456"/>
      <point x="965" y="580" type="curve" smooth="yes"/>
      <point x="965" y="704"/>
      <point x="864" y="805"/>
      <point x="740" y="805" type="curve" smooth="yes"/>
      <point x="616" y="805"/>
      <point x="515" y="704"/>
      <point x="515" y="580" type="curve"/>
      <point x="515" y="573"/>
      <point x="516" y="564"/>
      <point x="517" y="556" type="curve"/>
      <point x="478" y="572"/>
      <point x="435" y="580"/>
      <point x="390" y="580" type="curve" smooth="yes"/>
      <point x="197" y="580"/>
      <point x="40" y="423"/>
      <point x="40" y="230" type="curve" smooth="yes"/>
      <point x="40" y="37"/>
      <point x="197" y="-120"/>
      <point x="390" y="-120" type="curve" smooth="yes"/>
      <point x="583" y="-120"/>
      <point x="740" y="37"/>
      <point x="740" y="230" type="curve" smooth="yes"/>
      <point x="740" y="252"/>
      <point x="722" y="270"/>
      <point x="700" y="270" type="curve" smooth="yes"/>
      <point x="678" y="270"/>
      <point x="660" y="252"/>
      <point x="660" y="230" type="curve" smooth="yes"/>
      <point x="660" y="81"/>
      <point x="539" y="-40"/>
      <point x="390" y="-40" type="curve" smooth="yes"/>
      <point x="241" y="-40"/>
      <point x="120" y="81"/>
      <point x="120" y="230" type="curve" smooth="yes"/>
      <point x="120" y="379"/>
      <point x="241" y="500"/>
      <point x="390" y="500" type="curve" smooth="yes"/>
      <point x="465" y="500"/>
      <point x="532" y="470"/>
    </contour>
    <contour>
      <point x="885" y="580" type="curve" smooth="yes"/>
      <point x="885" y="499.64444444444445"/>
      <point x="820.3555555555556" y="435"/>
      <point x="740" y="435" type="curve" smooth="yes"/>
      <point x="659.6444444444444" y="435"/>
      <point x="595" y="499.64444444444445"/>
      <point x="595" y="580" type="curve" smooth="yes"/>
      <point x="595" y="660.3555555555556"/>
      <point x="659.6444444444444" y="725"/>
      <point x="740" y="725" type="curve" smooth="yes"/>
      <point x="820.3555555555556" y="725"/>
      <point x="885" y="660.3555555555556"/>
    </contour>
  </outline>
</glyph>
<glyph name="uniE016" format="2">
  <advance width="1000"/>
  <unicode hex="E016"/>
  <outline>
    <contour>
      <point x="910" y="510" type="curve" smooth="yes"/>
      <point x="910" y="576"/>
      <point x="883" y="636"/>
      <point x="840" y="680" type="curve"/>
      <point x="754" y="767"/>
      <point x="633" y="820"/>
      <point x="500" y="820" type="curve" smooth="yes"/>
      <point x="235" y="820"/>
      <point x="20" y="605"/>
      <point x="20" y="340" type="curve" smooth="yes"/>
      <point x="20" y="75"/>
      <point x="235" y="-140"/>
      <point x="500" y="-140" type="curve" smooth="yes"/>
      <point x="632" y="-140"/>
      <point x="752" y="-86"/>
      <point x="839" y="1" type="curve"/>
      <point x="846" y="8"/>
      <point x="851" y="18"/>
      <point x="851" y="29" type="curve" smooth="yes"/>
      <point x="851" y="51"/>
      <point x="833" y="69"/>
      <point x="811" y="69" type="curve" smooth="yes"/>
      <point x="800" y="69"/>
      <point x="790" y="64"/>
      <point x="783" y="57" type="curve"/>
      <point x="710" y="-15"/>
      <point x="610" y="-60"/>
      <point x="500" y="-60" type="curve" smooth="yes"/>
      <point x="279" y="-60"/>
      <point x="100" y="119"/>
      <point x="100" y="340" type="curve" smooth="yes"/>
      <point x="100" y="561"/>
      <point x="279" y="740"/>
      <point x="500" y="740" type="curve" smooth="yes"/>
      <point x="527" y="740"/>
      <point x="554" y="737"/>
      <point x="580" y="732" type="curve"/>
      <point x="493" y="696"/>
      <point x="430" y="610"/>
      <point x="430" y="510" type="curve" smooth="yes"/>
      <point x="430" y="377"/>
      <point x="537" y="270"/>
      <point x="670" y="270" type="curve" smooth="yes"/>
      <point x="803" y="270"/>
      <point x="910" y="377"/>
    </contour>
    <contour>
      <point x="831" y="510" type="curve" smooth="yes"/>
      <point x="831" y="420.82666666666665"/>
      <point x="759.1733333333333" y="349"/>
      <point x="670" y="349" type="curve" smooth="yes"/>
      <point x="580.8266666666667" y="349"/>
      <point x="509" y="420.82666666666665"/>
      <point x="509" y="510" type="curve" smooth="yes"/>
      <point x="509" y="599.1733333333333"/>
      <point x="580.8266666666667" y="671"/>
      <point x="670" y="671" type="curve" smooth="yes"/>
      <point x="759.1733333333333" y="671"/>
      <point x="831" y="599.1733333333333"/>
    </contour>
  </outline>
</glyph>
<glyph name="uniE017" format="2">
  <advance width="1000"/>
  <unicode hex="E017"/>
  <outline>
    <contour>
      <point x="500" y="820" type="curve" smooth="yes"/>
      <point x="235" y="820"/>
      <point x="20" y="605"/>
      <point x="20" y="340" type="curve" smooth="yes"/>
      <point x="20" y="75"/>
      <point x="235" y="-140"/>
      <point x="500" y="-140" type="curve" smooth="yes"/>
      <point x="765" y="-140"/>
      <point x="980" y="75"/>
      <point x="980" y="340" type="curve" smooth="yes"/>
      <point x="980" y="381"/>
      <point x="975" y="422"/>
      <point x="965" y="460" type="curve"/>
      <point x="460" y="460" type="line"/>
      <point x="460" y="438"/>
      <point x="478" y="420"/>
      <point x="500" y="420" type="curve" smooth="yes"/>
      <point x="892" y="420" type="line"/>
      <point x="899" y="393"/>
      <point x="900" y="362"/>
      <point x="900" y="340" type="curve"/>
      <point x="900" y="320" type="line"/>
      <point x="500" y="320" type="line" smooth="yes"/>
      <point x="478" y="320"/>
      <point x="460" y="302"/>
      <point x="460" y="280" type="curve" smooth="yes"/>
      <point x="460" y="258"/>
      <point x="478" y="240"/>
      <point x="500" y="240" type="curve" smooth="yes"/>
      <point x="887" y="240" type="line"/>
      <point x="878" y="205"/>
      <point x="864" y="171"/>
      <point x="847" y="140" type="curve"/>
      <point x="500" y="140" type="line" smooth="yes"/>
      <point x="478" y="140"/>
      <point x="460" y="122"/>
      <point x="460" y="100" type="curve" smooth="yes"/>
      <point x="460" y="78"/>
      <point x="478" y="60"/>
      <point x="500" y="60" type="curve" smooth="yes"/>
      <point x="786" y="60" type="line"/>
      <point x="713" y="-14"/>
      <point x="612" y="-60"/>
      <point x="500" y="-60" type="curve" smooth="yes"/>
      <point x="279" y="-60"/>
      <point x="100" y="119"/>
      <point x="100" y="340" type="curve" smooth="yes"/>
      <point x="100" y="380"/>
      <point x="106" y="423"/>
      <point x="118" y="460" type="curve"/>
      <point x="460" y="460" type="line"/>
      <point x="460" y="482"/>
      <point x="478" y="500"/>
      <point x="500" y="500" type="curve" smooth="yes"/>
      <point x="953" y="500" type="line"/>
      <point x="940" y="535"/>
      <point x="923" y="569"/>
      <point x="903" y="600" type="curve"/>
      <point x="500" y="600" type="line"/>
      <point x="478" y="600"/>
      <point x="460" y="618"/>
      <point x="460" y="640" type="curve" smooth="yes"/>
      <point x="460" y="662"/>
      <point x="478" y="680"/>
      <point x="500" y="680" type="curve"/>
      <point x="839" y="680" type="line"/>
      <point x="752" y="766"/>
      <point x="632" y="820"/>
    </contour>
  </outline>
</glyph>
<glyph name="uniE018" format="2">
  <advance width="1000"/>
  <unicode hex="E018"/>
  <outline>
    <contour>
      <point x="405" y="555" type="curve" smooth="yes"/>
      <point x="405" y="629.8444444444444"/>
      <point x="344.84444444444443" y="690"/>
      <point x="270" y="690" type="curve" smooth="yes"/>
      <point x="195.15555555555557" y="690"/>
      <point x="135" y="629.8444444444444"/>
      <point x="135" y="555" type="curve" smooth="yes"/>
      <point x="135" y="480.15555555555557"/>
      <point x="195.15555555555557" y="420"/>
      <point x="270" y="420" type="curve" smooth="yes"/>
      <point x="344.84444444444443" y="420"/>
      <point x="405" y="480.15555555555557"/>
    </contour>
    <contour>
      <point x="865" y="435" type="curve" smooth="yes"/>
      <point x="865" y="487.8"/>
      <point x="822.8" y="530"/>
      <point x="770" y="530" type="curve" smooth="yes"/>
      <point x="717.2" y="530"/>
      <point x="675" y="487.8"/>
      <point x="675" y="435" type="curve" smooth="yes"/>
      <point x="675" y="382.2"/>
      <point x="717.2" y="340"/>
      <point x="770" y="340" type="curve" smooth="yes"/>
      <point x="822.8" y="340"/>
      <point x="865" y="382.2"/>
    </contour>
    <contour>
      <point x="510" y="75" type="curve" smooth="yes"/>
      <point x="510" y="122.28888888888889"/>
      <point x="472.2888888888889" y="160"/>
      <point x="425" y="160" type="curve" smooth="yes"/>
      <point x="377.7111111111111" y="160"/>
      <point x="340" y="122.28888888888889"/>
      <point x="340" y="75" type="curve" smooth="yes"/>
      <point x="340" y="27.71111111111111"/>
      <point x="377.7111111111111" y="-10"/>
      <point x="425" y="-10" type="curve" smooth="yes"/>
      <point x="472.2888888888889" y="-10"/>
      <point x="510" y="27.71111111111111"/>
    </contour>
    <contour>
      <point x="535" y="555" type="curve" smooth="yes"/>
      <point x="535" y="701.4888888888888"/>
      <point x="416.4888888888889" y="820"/>
      <point x="270" y="820" type="curve" smooth="yes"/>
      <point x="123.51111111111112" y="820"/>
      <point x="5" y="701.4888888888888"/>
      <point x="5" y="555" type="curve" smooth="yes"/>
      <point x="5" y="408.5111111111111"/>
      <point x="123.51111111111112" y="290"/>
      <point x="270" y="290" type="curve" smooth="yes"/>
      <point x="416.4888888888889" y="290"/>
      <point x="535" y="408.5111111111111"/>
    </contour>
    <contour>
      <point x="475" y="555" type="curve" smooth="yes"/>
      <point x="475" y="441.5777777777778"/>
      <point x="383.4222222222222" y="350"/>
      <point x="270" y="350" type="curve" smooth="yes"/>
      <point x="156.57777777777778" y="350"/>
      <point x="65" y="441.5777777777778"/>
      <point x="65" y="555" type="curve" smooth="yes"/>
      <point x="65" y="668.4222222222222"/>
      <point x="156.57777777777778" y="760"/>
      <point x="270" y="760" type="curve" smooth="yes"/>
      <point x="383.4222222222222" y="760"/>
      <point x="475" y="668.4222222222222"/>
    </contour>
    <contour>
      <point x="995" y="435" type="curve" smooth="yes"/>
      <point x="995" y="559.4444444444445"/>
      <point x="894.4444444444445" y="660"/>
      <point x="770" y="660" type="curve" smooth="yes"/>
      <point x="645.5555555555555" y="660"/>
      <point x="545" y="559.4444444444445"/>
      <point x="545" y="435" type="curve" smooth="yes"/>
      <point x="545" y="310.55555555555554"/>
      <point x="645.5555555555555" y="210"/>
      <point x="770" y="210" type="curve" smooth="yes"/>
      <point x="894.4444444444445" y="210"/>
      <point x="995" y="310.55555555555554"/>
    </contour>
    <contour>
      <point x="935" y="435" type="curve" smooth="yes"/>
      <point x="935" y="343.62222222222226"/>
      <point x="861.3777777777777" y="270"/>
      <point x="770" y="270" type="curve" smooth="yes"/>
      <point x="678.6222222222223" y="270"/>
      <point x="605" y="343.62222222222226"/>
      <point x="605" y="435" type="curve" smooth="yes"/>
      <point x="605" y="526.3777777777777"/>
      <point x="678.6222222222223" y="600"/>
      <point x="770" y="600" type="curve" smooth="yes"/>
      <point x="861.3777777777777" y="600"/>
      <point x="935" y="526.3777777777777"/>
    </contour>
    <contour>
      <point x="640" y="75" type="curve" smooth="yes"/>
      <point x="640" y="193.93333333333334"/>
      <point x="543.9333333333333" y="290"/>
      <point x="425" y="290" type="curve" smooth="yes"/>
      <point x="306.06666666666666" y="290"/>
      <point x="210" y="193.93333333333334"/>
      <point x="210" y="75" type="curve" smooth="yes"/>
      <point x="210" y="-43.93333333333332"/>
      <point x="306.06666666666666" y="-140"/>
      <point x="425" y="-140" type="curve" smooth="yes"/>
      <point x="543.9333333333333" y="-140"/>
      <point x="640" y="-43.93333333333332"/>
    </contour>
    <contour>
      <point x="580" y="75" type="curve" smooth="yes"/>
      <point x="580" y="-10.866666666666674"/>
      <point x="510.8666666666667" y="-80"/>
      <point x="425" y="-80" type="curve" smooth="yes"/>
      <point x="339.1333333333333" y="-80"/>
      <point x="270" y="-10.866666666666674"/>
      <point x="270" y="75" type="curve" smooth="yes"/>
      <point x="270" y="160.86666666666667"/>
      <point x="339.1333333333333" y="230"/>
      <point x="425" y="230" type="curve" smooth="yes"/>
      <point x="510.8666666666667" y="230"/>
      <point x="580" y="160.86666666666667"/>
    </contour>
  </outline>
</glyph>
<glyph name="uniE019" format="2">
  <advance width="1000"/>
  <unicode hex="E019"/>
  <outline>
    <contour>
      <point x="465" y="565" type="curve" smooth="yes"/>
      <point x="465" y="687"/>
      <point x="367" y="785"/>
      <point x="245" y="785" type="curve" smooth="yes"/>
      <point x="123" y="785"/>
      <point x="25" y="687"/>
      <point x="25" y="565" type="curve" smooth="yes"/>
      <point x="25" y="443"/>
      <point x="123" y="345"/>
      <point x="245" y="345" type="curve" smooth="yes"/>
      <point x="254" y="345"/>
      <point x="262" y="345"/>
      <point x="270" y="346" type="curve"/>
      <point x="337" y="161" type="line"/>
      <point x="299" y="132"/>
      <point x="275" y="86"/>
      <point x="275" y="35" type="curve" smooth="yes"/>
      <point x="275" y="-54"/>
      <point x="346" y="-125"/>
      <point x="435" y="-125" type="curve" smooth="yes"/>
      <point x="524" y="-125"/>
      <point x="595" y="-54"/>
      <point x="595" y="35" type="curve" smooth="yes"/>
      <point x="595" y="124"/>
      <point x="524" y="195"/>
      <point x="435" y="195" type="curve" smooth="yes"/>
      <point x="434" y="195"/>
      <point x="432" y="195"/>
      <point x="431" y="195" type="curve"/>
      <point x="364" y="380" type="line"/>
      <point x="397" y="401"/>
      <point x="424" y="431"/>
      <point x="442" y="467" type="curve"/>
      <point x="640" y="419" type="line"/>
      <point x="646" y="330"/>
      <point x="720" y="260"/>
      <point x="810" y="260" type="curve" smooth="yes"/>
      <point x="904" y="260"/>
      <point x="980" y="336"/>
      <point x="980" y="430" type="curve" smooth="yes"/>
      <point x="980" y="524"/>
      <point x="904" y="600"/>
      <point x="810" y="600" type="curve" smooth="yes"/>
      <point x="747" y="600"/>
      <point x="693" y="567"/>
      <point x="663" y="516" type="curve"/>
      <point x="465" y="564" type="line"/>
      <point x="465" y="564"/>
      <point x="465" y="565"/>
    </contour>
  </outline>
</glyph>
<glyph name="uniE01A" format="2">
  <advance width="1000"/>
  <unicode hex="E01A"/>
  <outline>
    <contour>
      <point x="485" y="550" type="curve" smooth="yes"/>
      <point x="485" y="671.6888888888889"/>
      <point x="386.68888888888887" y="770"/>
      <point x="265" y="770" type="curve" smooth="yes"/>
      <point x="143.31111111111113" y="770"/>
      <point x="45" y="671.6888888888889"/>
      <point x="45" y="550" type="curve" smooth="yes"/>
      <point x="45" y="428.31111111111113"/>
      <point x="143.31111111111113" y="330"/>
      <point x="265" y="330" type="curve" smooth="yes"/>
      <point x="386.68888888888887" y="330"/>
      <point x="485" y="428.31111111111113"/>
    </contour>
    <contour>
      <point x="970" y="425" type="curve" smooth="yes"/>
      <point x="970" y="519.1333333333333"/>
      <point x="894.1333333333333" y="595"/>
      <point x="800" y="595" type="curve" smooth="yes"/>
      <point x="705.8666666666667" y="595"/>
      <point x="630" y="519.1333333333333"/>
      <point x="630" y="425" type="curve" smooth="yes"/>
      <point x="630" y="330.8666666666667"/>
      <point x="705.8666666666667" y="255"/>
      <point x="800" y="255" type="curve" smooth="yes"/>
      <point x="894.1333333333333" y="255"/>
      <point x="970" y="330.8666666666667"/>
    </contour>
    <contour>
      <point x="610" y="40" type="curve" smooth="yes"/>
      <point x="610" y="128.6222222222222"/>
      <point x="538.6222222222223" y="200"/>
      <point x="450" y="200" type="curve" smooth="yes"/>
      <point x="361.3777777777778" y="200"/>
      <point x="290" y="128.6222222222222"/>
      <point x="290" y="40" type="curve" smooth="yes"/>
      <point x="290" y="-48.62222222222222"/>
      <point x="361.3777777777778" y="-120"/>
      <point x="450" y="-120" type="curve" smooth="yes"/>
      <point x="538.6222222222223" y="-120"/>
      <point x="610" y="-48.62222222222222"/>
    </contour>
  </outline>
</glyph>
<glyph name="uniE01B" format="2">
  <advance width="1000"/>
  <unicode hex="E01B"/>
  <outline>
    <contour>
      <point x="490" y="550" type="curve" smooth="yes"/>
      <point x="490" y="674.4444444444445"/>
      <point x="389.44444444444446" y="775"/>
      <point x="265" y="775" type="curve" smooth="yes"/>
      <point x="140.55555555555554" y="775"/>
      <point x="40" y="674.4444444444445"/>
      <point x="40" y="550" type="curve" smooth="yes"/>
      <point x="40" y="425.55555555555554"/>
      <point x="140.55555555555554" y="325"/>
      <point x="265" y="325" type="curve" smooth="yes"/>
      <point x="389.44444444444446" y="325"/>
      <point x="490" y="425.55555555555554"/>
    </contour>
    <contour>
      <point x="420" y="550" type="curve" smooth="yes"/>
      <point x="420" y="464.1333333333333"/>
      <point x="350.8666666666667" y="395"/>
      <point x="265" y="395" type="curve" smooth="yes"/>
      <point x="179.13333333333333" y="395"/>
      <point x="110" y="464.1333333333333"/>
      <point x="110" y="550" type="curve" smooth="yes"/>
      <point x="110" y="635.8666666666667"/>
      <point x="179.13333333333333" y="705"/>
      <point x="265" y="705" type="curve" smooth="yes"/>
      <point x="350.8666666666667" y="705"/>
      <point x="420" y="635.8666666666667"/>
    </contour>
    <contour>
      <point x="970" y="425" type="curve" smooth="yes"/>
      <point x="970" y="524.6444444444444"/>
      <point x="889.6444444444444" y="605"/>
      <point x="790" y="605" type="curve" smooth="yes"/>
      <point x="690.3555555555556" y="605"/>
      <point x="610" y="524.6444444444444"/>
      <point x="610" y="425" type="curve" smooth="yes"/>
      <point x="610" y="325.35555555555555"/>
      <point x="690.3555555555556" y="245"/>
      <point x="790" y="245" type="curve" smooth="yes"/>
      <point x="889.6444444444444" y="245"/>
      <point x="970" y="325.35555555555555"/>
    </contour>
    <contour>
      <point x="905" y="425" type="curve" smooth="yes"/>
      <point x="905" y="361.1777777777778"/>
      <point x="853.8222222222222" y="310"/>
      <point x="790" y="310" type="curve" smooth="yes"/>
      <point x="726.1777777777778" y="310"/>
      <point x="675" y="361.1777777777778"/>
      <point x="675" y="425" type="curve" smooth="yes"/>
      <point x="675" y="488.8222222222222"/>
      <point x="726.1777777777778" y="540"/>
      <point x="790" y="540" type="curve" smooth="yes"/>
      <point x="853.8222222222222" y="540"/>
      <point x="905" y="488.8222222222222"/>
    </contour>
    <contour>
      <point x="610" y="50" type="curve" smooth="yes"/>
      <point x="610" y="141.37777777777777"/>
      <point x="536.3777777777777" y="215"/>
      <point x="445" y="215" type="curve" smooth="yes"/>
      <point x="353.62222222222226" y="215"/>
      <point x="280" y="141.37777777777777"/>
      <point x="280" y="50" type="curve" smooth="yes"/>
      <point x="280" y="-41.377777777777766"/>
      <point x="353.62222222222226" y="-115"/>
      <point x="445" y="-115" type="curve" smooth="yes"/>
      <point x="536.3777777777777" y="-115"/>
      <point x="610" y="-41.377777777777766"/>
    </contour>
    <contour>
      <point x="545" y="50" type="curve" smooth="yes"/>
      <point x="545" y="-5.555555555555564"/>
      <point x="500.55555555555554" y="-50.000000000000014"/>
      <point x="445" y="-50.000000000000014" type="curve" smooth="yes"/>
      <point x="389.44444444444446" y="-50.000000000000014"/>
      <point x="345" y="-5.555555555555564"/>
      <point x="345" y="50" type="curve" smooth="yes"/>
      <point x="345" y="105.55555555555557"/>
      <point x="389.44444444444446" y="150"/>
      <point x="445" y="150" type="curve" smooth="yes"/>
      <point x="500.55555555555554" y="150"/>
      <point x="545" y="105.55555555555557"/>
    </contour>
  </outline>
</glyph>
<glyph name="uniE01C" format="2">
  <advance width="1000"/>
  <unicode hex="E01C"/>
  <outline>
    <contour>
      <point x="740" y="520" type="curve" smooth="yes"/>
      <point x="740" y="653"/>
      <point x="633" y="760"/>
      <point x="500" y="760" type="curve" smooth="yes"/>
      <point x="367" y="760"/>
      <point x="260" y="653"/>
      <point x="260" y="520" type="curve" smooth="yes"/>
      <point x="260" y="455"/>
      <point x="286" y="396"/>
      <point x="328" y="353" type="curve"/>
      <point x="237" y="224" type="line"/>
      <point x="225" y="228"/>
      <point x="212" y="230"/>
      <point x="198" y="230" type="curve" smooth="yes"/>
      <point x="120" y="230"/>
      <point x="58" y="168"/>
      <point x="58" y="90" type="curve" smooth="yes"/>
      <point x="58" y="12"/>
      <point x="120" y="-50"/>
      <point x="198" y="-50" type="curve" smooth="yes"/>
      <point x="276" y="-50"/>
      <point x="338" y="12"/>
      <point x="338" y="90" type="curve" smooth="yes"/>
      <point x="338" y="121"/>
      <point x="328" y="150"/>
      <point x="311" y="173" type="curve"/>
      <point x="401" y="301" type="line"/>
      <point x="431" y="288"/>
      <point x="465" y="280"/>
      <point x="500" y="280" type="curve" smooth="yes"/>
      <point x="535" y="280"/>
      <point x="569" y="288"/>
      <point x="599" y="301" type="curve"/>
      <point x="689" y="173" type="line"/>
      <point x="672" y="150"/>
      <point x="662" y="121"/>
      <point x="662" y="90" type="curve" smooth="yes"/>
      <point x="662" y="12"/>
      <point x="724" y="-50"/>
      <point x="802" y="-50" type="curve" smooth="yes"/>
      <point x="880" y="-50"/>
      <point x="942" y="12"/>
      <point x="942" y="90" type="curve" smooth="yes"/>
      <point x="942" y="168"/>
      <point x="880" y="230"/>
      <point x="802" y="230" type="curve" smooth="yes"/>
      <point x="788" y="230"/>
      <point x="775" y="228"/>
      <point x="763" y="224" type="curve"/>
      <point x="672" y="353" type="line"/>
      <point x="714" y="396"/>
      <point x="740" y="455"/>
    </contour>
  </outline>
</glyph>
<glyph name="uniE01D" format="2">
  <advance width="1000"/>
  <unicode hex="E01D"/>
  <outline>
    <contour>
      <point x="260" y="580" type="line" smooth="yes"/>
      <point x="246" y="566"/>
      <point x="246" y="544"/>
      <point x="260" y="530" type="curve" smooth="yes"/>
      <point x="451" y="340" type="line"/>
      <point x="260" y="150" type="line" smooth="yes"/>
      <point x="246" y="136"/>
      <point x="246" y="114"/>
      <point x="260" y="100" type="curve" smooth="yes"/>
      <point x="470" y="-110" type="line"/>
      <point x="478" y="-118"/>
      <point x="488" y="-125"/>
      <point x="500" y="-125" type="curve" smooth="yes"/>
      <point x="520" y="-125"/>
      <point x="535" y="-110"/>
      <point x="535" y="-90" type="curve" smooth="yes"/>
      <point x="535" y="256" type="line"/>
      <point x="690" y="100" type="line" smooth="yes"/>
      <point x="704" y="86"/>
      <point x="726" y="86"/>
      <point x="740" y="100" type="curve" smooth="yes"/>
      <point x="754" y="114"/>
      <point x="754" y="136"/>
      <point x="740" y="150" type="curve" smooth="yes"/>
      <point x="549" y="340" type="line"/>
      <point x="740" y="530" type="line" smooth="yes"/>
      <point x="754" y="544"/>
      <point x="754" y="566"/>
      <point x="740" y="580" type="curve" smooth="yes"/>
      <point x="726" y="594"/>
      <point x="704" y="594"/>
      <point x="690" y="580" type="curve" smooth="yes"/>
      <point x="535" y="424" type="line"/>
      <point x="535" y="770" type="line" smooth="yes"/>
      <point x="535" y="790"/>
      <point x="520" y="805"/>
      <point x="500" y="805" type="curve" smooth="yes"/>
      <point x="488" y="805"/>
      <point x="478" y="798"/>
      <point x="470" y="790" type="curve"/>
    </contour>
    <contour>
      <point x="465" y="256" type="line"/>
      <point x="465" y="-6" type="line"/>
      <point x="334" y="125" type="line"/>
    </contour>
    <contour>
      <point x="465" y="424" type="line"/>
      <point x="334" y="555" type="line"/>
      <point x="465" y="686" type="line"/>
    </contour>
  </outline>
</glyph>
<glyph name="uniE01E" format="2">
  <advance width="1000"/>
  <unicode hex="E01E"/>
  <outline>
    <contour>
      <point x="280" y="340" type="curve" smooth="yes"/>
      <point x="280" y="384.5333333333333"/>
      <point x="244.53333333333333" y="420"/>
      <point x="200" y="420" type="curve" smooth="yes"/>
      <point x="155.46666666666667" y="420"/>
      <point x="120" y="384.5333333333333"/>
      <point x="120" y="340" type="curve" smooth="yes"/>
      <point x="120" y="295.4666666666667"/>
      <point x="155.46666666666667" y="260"/>
      <point x="200" y="260" type="curve" smooth="yes"/>
      <point x="244.53333333333333" y="260"/>
      <point x="280" y="295.4666666666667"/>
    </contour>
    <contour>
      <point x="880" y="340" type="curve" smooth="yes"/>
      <point x="880" y="384.5333333333333"/>
      <point x="844.5333333333333" y="420"/>
      <point x="800" y="420" type="curve" smooth="yes"/>
      <point x="755.4666666666667" y="420"/>
      <point x="720" y="384.5333333333333"/>
      <point x="720" y="340" type="curve" smooth="yes"/>
      <point x="720" y="295.4666666666667"/>
      <point x="755.4666666666667" y="260"/>
      <point x="800" y="260" type="curve" smooth="yes"/>
      <point x="844.5333333333333" y="260"/>
      <point x="880" y="295.4666666666667"/>
    </contour>
    <contour>
      <point x="260" y="580" type="line" smooth="yes"/>
      <point x="246" y="566"/>
      <point x="246" y="544"/>
      <point x="260" y="530" type="curve" smooth="yes"/>
      <point x="451" y="340" type="line"/>
      <point x="260" y="150" type="line" smooth="yes"/>
      <point x="246" y="136"/>
      <point x="246" y="114"/>
      <point x="260" y="100" type="curve" smooth="yes"/>
      <point x="470" y="-110" type="line"/>
      <point x="478" y="-118"/>
      <point x="488" y="-125"/>
      <point x="500" y="-125" type="curve" smooth="yes"/>
      <point x="520" y="-125"/>
      <point x="535" y="-110"/>
      <point x="535" y="-90" type="curve" smooth="yes"/>
      <point x="535" y="256" type="line"/>
      <point x="690" y="100" type="line" smooth="yes"/>
      <point x="704" y="86"/>
      <point x="726" y="86"/>
      <point x="740" y="100" type="curve" smooth="yes"/>
      <point x="754" y="114"/>
      <point x="754" y="136"/>
      <point x="740" y="150" type="curve" smooth="yes"/>
      <point x="549" y="340" type="line"/>
      <point x="740" y="530" type="line" smooth="yes"/>
      <point x="754" y="544"/>
      <point x="754" y="566"/>
      <point x="740" y="580" type="curve" smooth="yes"/>
      <point x="726" y="594"/>
      <point x="704" y="594"/>
      <point x="690" y="580" type="curve" smooth="yes"/>
      <point x="535" y="424" type="line"/>
      <point x="535" y="770" type="line" smooth="yes"/>
      <point x="535" y="790"/>
      <point x="520" y="805"/>
      <point x="500" y="805" type="curve" smooth="yes"/>
      <point x="488" y="805"/>
      <point x="478" y="798"/>
      <point x="470" y="790" type="curve"/>
    </contour>
    <contour>
      <point x="465" y="256" type="line"/>
      <point x="465" y="-6" type="line"/>
      <point x="334" y="125" type="line"/>
    </contour>
    <contour>
      <point x="465" y="424" type="line"/>
      <point x="334" y="555" type="line"/>
      <point x="465" y="686" type="line"/>
    </contour>
  </outline>
</glyph>
<glyph name="uniE01F" format="2">
  <advance width="1000"/>
  <unicode hex="E01F"/>
  <outline>
    <contour>
      <point x="253" y="157" type="line" smooth="yes"/>
      <point x="235" y="139"/>
      <point x="235" y="111"/>
      <point x="253" y="93" type="curve" smooth="yes"/>
      <point x="266" y="81"/>
      <point x="284" y="77"/>
      <point x="299" y="82" type="curve"/>
      <point x="483" y="-102" type="line"/>
      <point x="488" y="-107"/>
      <point x="493" y="-110"/>
      <point x="500" y="-110" type="curve" smooth="yes"/>
      <point x="511" y="-110"/>
      <point x="520" y="-101"/>
      <point x="520" y="-90" type="curve" smooth="yes"/>
      <point x="520" y="256" type="line"/>
      <point x="683" y="93" type="line" smooth="yes"/>
      <point x="701" y="75"/>
      <point x="729" y="75"/>
      <point x="747" y="93" type="curve" smooth="yes"/>
      <point x="765" y="111"/>
      <point x="765" y="139"/>
      <point x="747" y="157" type="curve" smooth="yes"/>
      <point x="564" y="340" type="line"/>
      <point x="747" y="523" type="line" smooth="yes"/>
      <point x="765" y="541"/>
      <point x="765" y="569"/>
      <point x="747" y="587" type="curve" smooth="yes"/>
      <point x="729" y="605"/>
      <point x="701" y="605"/>
      <point x="683" y="587" type="curve" smooth="yes"/>
      <point x="520" y="424" type="line"/>
      <point x="520" y="770" type="line" smooth="yes"/>
      <point x="520" y="781"/>
      <point x="511" y="790"/>
      <point x="500" y="790" type="curve" smooth="yes"/>
      <point x="493" y="790"/>
      <point x="488" y="787"/>
      <point x="483" y="782" type="curve"/>
      <point x="299" y="598" type="line"/>
      <point x="284" y="603"/>
      <point x="266" y="599"/>
      <point x="253" y="587" type="curve" smooth="yes"/>
      <point x="235" y="569"/>
      <point x="235" y="541"/>
      <point x="253" y="523" type="curve" smooth="yes"/>
      <point x="436" y="340" type="line"/>
    </contour>
    <contour>
      <point x="331" y="107" type="line"/>
      <point x="480" y="256" type="line"/>
      <point x="480" y="-42" type="line"/>
    </contour>
    <contour>
      <point x="480" y="424" type="line"/>
      <point x="331" y="573" type="line"/>
      <point x="480" y="722" type="line"/>
    </contour>
  </outline>
</glyph>
<glyph name="uniE020" format="2">
  <advance width="1000"/>
  <unicode hex="E020"/>
  <outline>
    <contour>
      <point x="800" y="340" type="curve" smooth="yes"/>
      <point x="800" y="505.77777777777777"/>
      <point x="665.7777777777778" y="640"/>
      <point x="500" y="640" type="curve" smooth="yes"/>
      <point x="334.22222222222223" y="640"/>
      <point x="200" y="505.77777777777777"/>
      <point x="200" y="340" type="curve" smooth="yes"/>
      <point x="200" y="174.22222222222223"/>
      <point x="334.22222222222223" y="40"/>
      <point x="500" y="40" type="curve" smooth="yes"/>
      <point x="665.7777777777778" y="40"/>
      <point x="800" y="174.22222222222223"/>
    </contour>
    <contour>
      <point x="320" y="275" type="curve"/>
      <point x="320" y="405" type="line"/>
      <point x="320" y="435.7555555555556"/>
      <point x="344.24444444444447" y="460"/>
      <point x="375" y="460" type="curve" smooth="yes"/>
      <point x="405.75555555555553" y="460"/>
      <point x="430" y="435.7555555555556"/>
      <point x="430" y="405" type="curve"/>
      <point x="430" y="275" type="line"/>
      <point x="430" y="244.24444444444444"/>
      <point x="405.75555555555553" y="220"/>
      <point x="375" y="220" type="curve" smooth="yes"/>
      <point x="344.24444444444447" y="220"/>
      <point x="320" y="244.24444444444444"/>
    </contour>
    <contour>
      <point x="570" y="275" type="curve"/>
      <point x="570" y="405" type="line"/>
      <point x="570" y="435.7555555555556"/>
      <point x="594.2444444444444" y="460"/>
      <point x="625" y="460" type="curve" smooth="yes"/>
      <point x="655.7555555555556" y="460"/>
      <point x="680" y="435.7555555555556"/>
      <point x="680" y="405" type="curve"/>
      <point x="680" y="275" type="line"/>
      <point x="680" y="244.24444444444444"/>
      <point x="655.7555555555556" y="220"/>
      <point x="625" y="220" type="curve" smooth="yes"/>
      <point x="594.2444444444444" y="220"/>
      <point x="570" y="244.24444444444444"/>
    </contour>
    <contour>
      <point x="980" y="340" type="curve" smooth="yes"/>
      <point x="980" y="604.9777777777778"/>
      <point x="764.9777777777778" y="820"/>
      <point x="500" y="820" type="curve" smooth="yes"/>
      <point x="235.02222222222224" y="820"/>
      <point x="20" y="604.9777777777778"/>
      <point x="20" y="340" type="curve" smooth="yes"/>
      <point x="20" y="75.02222222222224"/>
      <point x="235.02222222222224" y="-140"/>
      <point x="500" y="-140" type="curve" smooth="yes"/>
      <point x="764.9777777777778" y="-140"/>
      <point x="980" y="75.02222222222224"/>
    </contour>
    <contour>
      <point x="890" y="340" type="curve" smooth="yes"/>
      <point x="890" y="124.62222222222223"/>
      <point x="715.3777777777777" y="-50"/>
      <point x="500" y="-50" type="curve" smooth="yes"/>
      <point x="284.62222222222226" y="-50"/>
      <point x="110" y="124.62222222222223"/>
      <point x="110" y="340" type="curve" smooth="yes"/>
      <point x="110" y="555.3777777777777"/>
      <point x="284.62222222222226" y="730"/>
      <point x="500" y="730" type="curve" smooth="yes"/>
      <point x="715.3777777777777" y="730"/>
      <point x="890" y="555.3777777777777"/>
    </contour>
  </outline>
</glyph>
<glyph name="uniE022" format="2">
  <advance width="1000"/>
  <unicode hex="E022"/>
  <outline>
    <contour>
      <point x="980" y="340" type="curve" smooth="yes"/>
      <point x="980" y="604.9777777777778"/>
      <point x="764.9777777777778" y="820"/>
      <point x="500" y="820" type="curve" smooth="yes"/>
      <point x="235.02222222222224" y="820"/>
      <point x="20" y="604.9777777777778"/>
      <point x="20" y="340" type="curve" smooth="yes"/>
      <point x="20" y="75.02222222222224"/>
      <point x="235.02222222222224" y="-140"/>
      <point x="500" y="-140" type="curve" smooth="yes"/>
      <point x="764.9777777777778" y="-140"/>
      <point x="980" y="75.02222222222224"/>
    </contour>
    <contour>
      <point x="900" y="340" type="curve" smooth="yes"/>
      <point x="900" y="119.11111111111111"/>
      <point x="720.8888888888889" y="-60"/>
      <point x="500" y="-60" type="curve" smooth="yes"/>
      <point x="279.1111111111111" y="-60"/>
      <point x="100" y="119.11111111111111"/>
      <point x="100" y="340" type="curve" smooth="yes"/>
      <point x="100" y="560.8888888888889"/>
      <point x="279.1111111111111" y="740"/>
      <point x="500" y="740" type="curve" smooth="yes"/>
      <point x="720.8888888888889" y="740"/>
      <point x="900" y="560.8888888888889"/>
    </contour>
    <contour>
      <point x="820" y="340" type="curve" smooth="yes"/>
      <point x="820" y="516.8"/>
      <point x="676.8" y="660"/>
      <point x="500" y="660" type="curve" smooth="yes"/>
      <point x="323.20000000000005" y="660"/>
      <point x="180" y="516.8"/>
      <point x="180" y="340" type="curve" smooth="yes"/>
      <point x="180" y="163.20000000000002"/>
      <point x="323.20000000000005" y="20"/>
      <point x="500" y="20" type="curve" smooth="yes"/>
      <point x="676.8" y="20"/>
      <point x="820" y="163.20000000000002"/>
    </contour>
    <contour>
      <point x="710" y="340" type="curve" smooth="yes"/>
      <point x="710" y="223.82222222222222"/>
      <point x="616.1777777777778" y="130"/>
      <point x="500" y="130" type="curve" smooth="yes"/>
      <point x="383.8222222222222" y="130"/>
      <point x="290" y="223.82222222222222"/>
      <point x="290" y="340" type="curve" smooth="yes"/>
      <point x="290" y="456.1777777777778"/>
      <point x="383.8222222222222" y="550"/>
      <point x="500" y="550" type="curve" smooth="yes"/>
      <point x="616.1777777777778" y="550"/>
      <point x="710" y="456.1777777777778"/>
    </contour>
  </outline>
</glyph>
<glyph name="uniE023" format="2">
  <advance width="1000"/>
  <unicode hex="E023"/>
  <outline>
    <contour>
      <point x="500" y="660" type="curve" smooth="yes"/>
      <point x="323" y="660"/>
      <point x="180" y="517"/>
      <point x="180" y="340" type="curve" smooth="yes"/>
      <point x="180" y="163"/>
      <point x="323" y="20"/>
      <point x="500" y="20" type="curve" smooth="yes"/>
      <point x="677" y="20"/>
      <point x="820" y="163"/>
      <point x="820" y="340" type="curve" smooth="yes"/>
      <point x="820" y="428"/>
      <point x="783" y="508"/>
      <point x="726" y="566" type="curve" smooth="yes"/>
      <point x="716" y="576"/>
      <point x="702" y="582"/>
      <point x="687" y="582" type="curve" smooth="yes"/>
      <point x="656" y="582"/>
      <point x="632" y="558"/>
      <point x="632" y="527" type="curve" smooth="yes"/>
      <point x="632" y="512"/>
      <point x="638" y="498"/>
      <point x="648" y="488" type="curve" smooth="yes"/>
      <point x="686" y="450"/>
      <point x="710" y="397"/>
      <point x="710" y="340" type="curve" smooth="yes"/>
      <point x="710" y="224"/>
      <point x="616" y="130"/>
      <point x="500" y="130" type="curve" smooth="yes"/>
      <point x="384" y="130"/>
      <point x="290" y="224"/>
      <point x="290" y="340" type="curve" smooth="yes"/>
      <point x="290" y="456"/>
      <point x="384" y="550"/>
      <point x="500" y="550" type="curve" smooth="yes"/>
      <point x="531" y="550"/>
      <point x="555" y="574"/>
      <point x="555" y="605" type="curve" smooth="yes"/>
      <point x="555" y="636"/>
      <point x="531" y="660"/>
    </contour>
    <contour>
      <point x="980" y="340" type="curve" smooth="yes"/>
      <point x="980" y="604.9777777777778"/>
      <point x="764.9777777777778" y="820"/>
      <point x="500" y="820" type="curve" smooth="yes"/>
      <point x="235.02222222222224" y="820"/>
      <point x="20" y="604.9777777777778"/>
      <point x="20" y="340" type="curve" smooth="yes"/>
      <point x="20" y="75.02222222222224"/>
      <point x="235.02222222222224" y="-140"/>
      <point x="500" y="-140" type="curve" smooth="yes"/>
      <point x="764.9777777777778" y="-140"/>
      <point x="980" y="75.02222222222224"/>
    </contour>
    <contour>
      <point x="900" y="340" type="curve" smooth="yes"/>
      <point x="900" y="119.11111111111111"/>
      <point x="720.8888888888889" y="-60"/>
      <point x="500" y="-60" type="curve" smooth="yes"/>
      <point x="279.1111111111111" y="-60"/>
      <point x="100" y="119.11111111111111"/>
      <point x="100" y="340" type="curve" smooth="yes"/>
      <point x="100" y="560.8888888888889"/>
      <point x="279.1111111111111" y="740"/>
      <point x="500" y="740" type="curve" smooth="yes"/>
      <point x="720.8888888888889" y="740"/>
      <point x="900" y="560.8888888888889"/>
    </contour>
  </outline>
</glyph>
<glyph name="uniE024" format="2">
  <advance width="1000"/>
  <unicode hex="E024"/>
  <outline>
    <contour>
      <point x="500" y="660" type="curve" smooth="yes"/>
      <point x="323" y="660"/>
      <point x="180" y="517"/>
      <point x="180" y="340" type="curve" smooth="yes"/>
      <point x="180" y="163"/>
      <point x="323" y="20"/>
      <point x="500" y="20" type="curve" smooth="yes"/>
      <point x="677" y="20"/>
      <point x="820" y="163"/>
      <point x="820" y="340" type="curve" smooth="yes"/>
      <point x="820" y="370.75555419921875"/>
      <point x="795.7555541992188" y="395"/>
      <point x="765" y="395" type="curve" smooth="yes"/>
      <point x="734.2444458007812" y="395"/>
      <point x="710" y="370.75555419921875"/>
      <point x="710" y="340" type="curve" smooth="yes"/>
      <point x="710" y="224"/>
      <point x="616" y="130"/>
      <point x="500" y="130" type="curve" smooth="yes"/>
      <point x="384" y="130"/>
      <point x="290" y="224"/>
      <point x="290" y="340" type="curve" smooth="yes"/>
      <point x="290" y="456"/>
      <point x="384" y="550"/>
      <point x="500" y="550" type="curve" smooth="yes"/>
      <point x="531" y="550"/>
      <point x="555" y="574"/>
      <point x="555" y="605" type="curve" smooth="yes"/>
      <point x="555" y="636"/>
      <point x="531" y="660"/>
    </contour>
    <contour>
      <point x="980" y="340" type="curve" smooth="yes"/>
      <point x="980" y="604.9777777777778"/>
      <point x="764.9777777777778" y="820"/>
      <point x="500" y="820" type="curve" smooth="yes"/>
      <point x="235.02222222222224" y="820"/>
      <point x="20" y="604.9777777777778"/>
      <point x="20" y="340" type="curve" smooth="yes"/>
      <point x="20" y="75.02222222222224"/>
      <point x="235.02222222222224" y="-140"/>
      <point x="500" y="-140" type="curve" smooth="yes"/>
      <point x="764.9777777777778" y="-140"/>
      <point x="980" y="75.02222222222224"/>
    </contour>
    <contour>
      <point x="900" y="340" type="curve" smooth="yes"/>
      <point x="900" y="119.11111111111111"/>
      <point x="720.8888888888889" y="-60"/>
      <point x="500" y="-60" type="curve" smooth="yes"/>
      <point x="279.1111111111111" y="-60"/>
      <point x="100" y="119.11111111111111"/>
      <point x="100" y="340" type="curve" smooth="yes"/>
      <point x="100" y="560.8888888888889"/>
      <point x="279.1111111111111" y="740"/>
      <point x="500" y="740" type="curve" smooth="yes"/>
      <point x="720.8888888888889" y="740"/>
      <point x="900" y="560.8888888888889"/>
    </contour>
  </outline>
</glyph>
<glyph name="uniE029" format="2">
  <advance width="1000"/>
  <unicode hex="E029"/>
  <outline>
    <contour>
      <point x="500" y="660" type="curve" smooth="yes"/>
      <point x="412" y="660"/>
      <point x="332" y="623"/>
      <point x="274" y="566" type="curve" smooth="yes"/>
      <point x="264" y="556"/>
      <point x="258" y="542"/>
      <point x="258" y="527" type="curve" smooth="yes"/>
      <point x="258" y="496"/>
      <point x="282" y="472"/>
      <point x="313" y="472" type="curve" smooth="yes"/>
      <point x="328" y="472"/>
      <point x="342" y="478"/>
      <point x="352" y="488" type="curve" smooth="yes"/>
      <point x="390" y="526"/>
      <point x="443" y="550"/>
      <point x="500" y="550" type="curve" smooth="yes"/>
      <point x="531" y="550"/>
      <point x="555" y="574"/>
      <point x="555" y="605" type="curve" smooth="yes"/>
      <point x="555" y="636"/>
      <point x="531" y="660"/>
    </contour>
    <contour>
      <point x="980" y="340" type="curve" smooth="yes"/>
      <point x="980" y="604.9777777777778"/>
      <point x="764.9777777777778" y="820"/>
      <point x="500" y="820" type="curve" smooth="yes"/>
      <point x="235.02222222222224" y="820"/>
      <point x="20" y="604.9777777777778"/>
      <point x="20" y="340" type="curve" smooth="yes"/>
      <point x="20" y="75.02222222222224"/>
      <point x="235.02222222222224" y="-140"/>
      <point x="500" y="-140" type="curve" smooth="yes"/>
      <point x="764.9777777777778" y="-140"/>
      <point x="980" y="75.02222222222224"/>
    </contour>
    <contour>
      <point x="900" y="340" type="curve" smooth="yes"/>
      <point x="900" y="119.11111111111111"/>
      <point x="720.8888888888889" y="-60"/>
      <point x="500" y="-60" type="curve" smooth="yes"/>
      <point x="279.1111111111111" y="-60"/>
      <point x="100" y="119.11111111111111"/>
      <point x="100" y="340" type="curve" smooth="yes"/>
      <point x="100" y="560.8888888888889"/>
      <point x="279.1111111111111" y="740"/>
      <point x="500" y="740" type="curve" smooth="yes"/>
      <point x="720.8888888888889" y="740"/>
      <point x="900" y="560.8888888888889"/>
    </contour>
  </outline>
</glyph>
<glyph name="uniE02A" format="2">
  <advance width="1000"/>
  <unicode hex="E02A"/>
  <outline>
    <contour>
      <point x="980" y="340" type="curve" smooth="yes"/>
      <point x="980" y="604.9777777777778"/>
      <point x="764.9777777777778" y="820"/>
      <point x="500" y="820" type="curve" smooth="yes"/>
      <point x="235.02222222222224" y="820"/>
      <point x="20" y="604.9777777777778"/>
      <point x="20" y="340" type="curve" smooth="yes"/>
      <point x="20" y="75.02222222222224"/>
      <point x="235.02222222222224" y="-140"/>
      <point x="500" y="-140" type="curve" smooth="yes"/>
      <point x="764.9777777777778" y="-140"/>
      <point x="980" y="75.02222222222224"/>
    </contour>
    <contour>
      <point x="900" y="340" type="curve" smooth="yes"/>
      <point x="900" y="119.11111111111111"/>
      <point x="720.8888888888889" y="-60"/>
      <point x="500" y="-60" type="curve" smooth="yes"/>
      <point x="279.1111111111111" y="-60"/>
      <point x="100" y="119.11111111111111"/>
      <point x="100" y="340" type="curve" smooth="yes"/>
      <point x="100" y="560.8888888888889"/>
      <point x="279.1111111111111" y="740"/>
      <point x="500" y="740" type="curve" smooth="yes"/>
      <point x="720.8888888888889" y="740"/>
      <point x="900" y="560.8888888888889"/>
    </contour>
  </outline>
</glyph>
<glyph name="uniE02B" format="2">
  <advance width="1000"/>
  <unicode hex="E02B"/>
  <outline>
    <contour>
      <point x="675" y="460" type="curve" smooth="yes"/>
      <point x="675" y="556.8888888888889"/>
      <point x="596.8888888888889" y="635"/>
      <point x="500" y="635" type="curve" smooth="yes"/>
      <point x="403.1111111111111" y="635"/>
      <point x="325" y="556.8888888888889"/>
      <point x="325" y="460" type="curve" smooth="yes"/>
      <point x="325" y="363.1111111111111"/>
      <point x="403.1111111111111" y="285"/>
      <point x="500" y="285" type="curve" smooth="yes"/>
      <point x="596.8888888888889" y="285"/>
      <point x="675" y="363.1111111111111"/>
    </contour>
    <contour>
      <point x="590" y="130" type="curve" smooth="yes"/>
      <point x="590" y="180.04444444444445"/>
      <point x="550.0444444444445" y="220"/>
      <point x="500" y="220" type="curve" smooth="yes"/>
      <point x="449.9555555555556" y="220"/>
      <point x="410" y="180.04444444444445"/>
      <point x="410" y="130" type="curve" smooth="yes"/>
      <point x="410" y="79.95555555555555"/>
      <point x="449.9555555555556" y="40"/>
      <point x="500" y="40" type="curve" smooth="yes"/>
      <point x="550.0444444444445" y="40"/>
      <point x="590" y="79.95555555555555"/>
    </contour>
    <contour>
      <point x="980" y="340" type="curve" smooth="yes"/>
      <point x="980" y="604.9777777777778"/>
      <point x="764.9777777777778" y="820"/>
      <point x="500" y="820" type="curve" smooth="yes"/>
      <point x="235.02222222222224" y="820"/>
      <point x="20" y="604.9777777777778"/>
      <point x="20" y="340" type="curve" smooth="yes"/>
      <point x="20" y="75.02222222222224"/>
      <point x="235.02222222222224" y="-140"/>
      <point x="500" y="-140" type="curve" smooth="yes"/>
      <point x="764.9777777777778" y="-140"/>
      <point x="980" y="75.02222222222224"/>
    </contour>
    <contour>
      <point x="900" y="340" type="curve" smooth="yes"/>
      <point x="900" y="119.11111111111111"/>
      <point x="720.8888888888889" y="-60"/>
      <point x="500" y="-60" type="curve" smooth="yes"/>
      <point x="279.1111111111111" y="-60"/>
      <point x="100" y="119.11111111111111"/>
      <point x="100" y="340" type="curve" smooth="yes"/>
      <point x="100" y="560.8888888888889"/>
      <point x="279.1111111111111" y="740"/>
      <point x="500" y="740" type="curve" smooth="yes"/>
      <point x="720.8888888888889" y="740"/>
      <point x="900" y="560.8888888888889"/>
    </contour>
  </outline>
</glyph>
<glyph name="uniE02C" format="2">
  <advance width="1000"/>
  <unicode hex="E02C"/>
  <outline>
    <contour>
      <point x="810" y="340" type="curve" smooth="yes"/>
      <point x="810" y="511.2888888888889"/>
      <point x="671.2888888888889" y="650"/>
      <point x="500" y="650" type="curve" smooth="yes"/>
      <point x="328.7111111111111" y="650"/>
      <point x="190" y="511.2888888888889"/>
      <point x="190" y="340" type="curve" smooth="yes"/>
      <point x="190" y="168.71111111111114"/>
      <point x="328.7111111111111" y="30"/>
      <point x="500" y="30" type="curve" smooth="yes"/>
      <point x="671.2888888888889" y="30"/>
      <point x="810" y="168.71111111111114"/>
    </contour>
    <contour>
      <point x="320" y="270" type="curve"/>
      <point x="320" y="410" type="line"/>
      <point x="320" y="440.7555555555556"/>
      <point x="344.24444444444447" y="465"/>
      <point x="375" y="465" type="curve" smooth="yes"/>
      <point x="405.75555555555553" y="465"/>
      <point x="430" y="440.7555555555556"/>
      <point x="430" y="410" type="curve"/>
      <point x="430" y="270" type="line"/>
      <point x="430" y="239.24444444444444"/>
      <point x="405.75555555555553" y="215"/>
      <point x="375" y="215" type="curve" smooth="yes"/>
      <point x="344.24444444444447" y="215"/>
      <point x="320" y="239.24444444444444"/>
    </contour>
    <contour>
      <point x="570" y="270" type="curve"/>
      <point x="570" y="410" type="line"/>
      <point x="570" y="440.7555555555556"/>
      <point x="594.2444444444444" y="465"/>
      <point x="625" y="465" type="curve" smooth="yes"/>
      <point x="655.7555555555556" y="465"/>
      <point x="680" y="440.7555555555556"/>
      <point x="680" y="410" type="curve"/>
      <point x="680" y="270" type="line"/>
      <point x="680" y="239.24444444444444"/>
      <point x="655.7555555555556" y="215"/>
      <point x="625" y="215" type="curve" smooth="yes"/>
      <point x="594.2444444444444" y="215"/>
      <point x="570" y="239.24444444444444"/>
    </contour>
    <contour>
      <point x="980" y="340" type="curve" smooth="yes"/>
      <point x="980" y="604.9777777777778"/>
      <point x="764.9777777777778" y="820"/>
      <point x="500" y="820" type="curve" smooth="yes"/>
      <point x="235.02222222222224" y="820"/>
      <point x="20" y="604.9777777777778"/>
      <point x="20" y="340" type="curve" smooth="yes"/>
      <point x="20" y="75.02222222222224"/>
      <point x="235.02222222222224" y="-140"/>
      <point x="500" y="-140" type="curve" smooth="yes"/>
      <point x="764.9777777777778" y="-140"/>
      <point x="980" y="75.02222222222224"/>
    </contour>
    <contour>
      <point x="900" y="340" type="curve" smooth="yes"/>
      <point x="900" y="119.11111111111111"/>
      <point x="720.8888888888889" y="-60"/>
      <point x="500" y="-60" type="curve" smooth="yes"/>
      <point x="279.1111111111111" y="-60"/>
      <point x="100" y="119.11111111111111"/>
      <point x="100" y="340" type="curve" smooth="yes"/>
      <point x="100" y="560.8888888888889"/>
      <point x="279.1111111111111" y="740"/>
      <point x="500" y="740" type="curve" smooth="yes"/>
      <point x="720.8888888888889" y="740"/>
      <point x="900" y="560.8888888888889"/>
    </contour>
  </outline>
</glyph>
<glyph name="uniE02D" format="2">
  <advance width="1000"/>
  <unicode hex="E02D"/>
  <outline>
    <contour>
      <point x="660" y="340" type="curve" smooth="yes"/>
      <point x="660" y="428.6222222222222"/>
      <point x="588.6222222222223" y="500"/>
      <point x="500" y="500" type="curve" smooth="yes"/>
      <point x="411.3777777777778" y="500"/>
      <point x="340" y="428.6222222222222"/>
      <point x="340" y="340" type="curve" smooth="yes"/>
      <point x="340" y="251.3777777777778"/>
      <point x="411.3777777777778" y="180"/>
      <point x="500" y="180" type="curve" smooth="yes"/>
      <point x="588.6222222222223" y="180"/>
      <point x="660" y="251.3777777777778"/>
    </contour>
    <contour>
      <point x="980" y="340" type="curve" smooth="yes"/>
      <point x="980" y="604.9777777777778"/>
      <point x="764.9777777777778" y="820"/>
      <point x="500" y="820" type="curve" smooth="yes"/>
      <point x="235.02222222222224" y="820"/>
      <point x="20" y="604.9777777777778"/>
      <point x="20" y="340" type="curve" smooth="yes"/>
      <point x="20" y="75.02222222222224"/>
      <point x="235.02222222222224" y="-140"/>
      <point x="500" y="-140" type="curve" smooth="yes"/>
      <point x="764.9777777777778" y="-140"/>
      <point x="980" y="75.02222222222224"/>
    </contour>
    <contour>
      <point x="900" y="340" type="curve" smooth="yes"/>
      <point x="900" y="119.11111111111111"/>
      <point x="720.8888888888889" y="-60"/>
      <point x="500" y="-60" type="curve" smooth="yes"/>
      <point x="279.1111111111111" y="-60"/>
      <point x="100" y="119.11111111111111"/>
      <point x="100" y="340" type="curve" smooth="yes"/>
      <point x="100" y="560.8888888888889"/>
      <point x="279.1111111111111" y="740"/>
      <point x="500" y="740" type="curve" smooth="yes"/>
      <point x="720.8888888888889" y="740"/>
      <point x="900" y="560.8888888888889"/>
    </contour>
    <contour>
      <point x="815" y="340" type="curve" smooth="yes"/>
      <point x="815" y="514.0444444444445"/>
      <point x="674.0444444444445" y="655"/>
      <point x="500" y="655" type="curve" smooth="yes"/>
      <point x="325.9555555555555" y="655"/>
      <point x="185" y="514.0444444444445"/>
      <point x="185" y="340" type="curve" smooth="yes"/>
      <point x="185" y="165.95555555555555"/>
      <point x="325.9555555555555" y="25"/>
      <point x="500" y="25" type="curve" smooth="yes"/>
      <point x="674.0444444444445" y="25"/>
      <point x="815" y="165.95555555555555"/>
    </contour>
    <contour>
      <point x="745" y="340" type="curve" smooth="yes"/>
      <point x="745" y="204.53333333333333"/>
      <point x="635.4666666666667" y="95"/>
      <point x="500" y="95" type="curve" smooth="yes"/>
      <point x="364.5333333333333" y="95"/>
      <point x="255" y="204.53333333333333"/>
      <point x="255" y="340" type="curve" smooth="yes"/>
      <point x="255" y="475.4666666666667"/>
      <point x="364.5333333333333" y="585"/>
      <point x="500" y="585" type="curve" smooth="yes"/>
      <point x="635.4666666666667" y="585"/>
      <point x="745" y="475.4666666666667"/>
    </contour>
  </outline>
</glyph>
<glyph name="uniE02E" format="2">
  <advance width="1000"/>
  <unicode hex="E02E"/>
  <outline>
    <contour>
      <point x="660" y="340" type="curve" smooth="yes"/>
      <point x="660" y="428.6222222222222"/>
      <point x="588.6222222222223" y="500"/>
      <point x="500" y="500" type="curve" smooth="yes"/>
      <point x="411.3777777777778" y="500"/>
      <point x="340" y="428.6222222222222"/>
      <point x="340" y="340" type="curve" smooth="yes"/>
      <point x="340" y="251.3777777777778"/>
      <point x="411.3777777777778" y="180"/>
      <point x="500" y="180" type="curve" smooth="yes"/>
      <point x="588.6222222222223" y="180"/>
      <point x="660" y="251.3777777777778"/>
    </contour>
    <contour>
      <point x="980" y="340" type="curve" smooth="yes"/>
      <point x="980" y="604.9777777777778"/>
      <point x="764.9777777777778" y="820"/>
      <point x="500" y="820" type="curve" smooth="yes"/>
      <point x="235.02222222222224" y="820"/>
      <point x="20" y="604.9777777777778"/>
      <point x="20" y="340" type="curve" smooth="yes"/>
      <point x="20" y="75.02222222222224"/>
      <point x="235.02222222222224" y="-140"/>
      <point x="500" y="-140" type="curve" smooth="yes"/>
      <point x="764.9777777777778" y="-140"/>
      <point x="980" y="75.02222222222224"/>
    </contour>
    <contour>
      <point x="900" y="340" type="curve" smooth="yes"/>
      <point x="900" y="119.11111111111111"/>
      <point x="720.8888888888889" y="-60"/>
      <point x="500" y="-60" type="curve" smooth="yes"/>
      <point x="279.1111111111111" y="-60"/>
      <point x="100" y="119.11111111111111"/>
      <point x="100" y="340" type="curve" smooth="yes"/>
      <point x="100" y="560.8888888888889"/>
      <point x="279.1111111111111" y="740"/>
      <point x="500" y="740" type="curve" smooth="yes"/>
      <point x="720.8888888888889" y="740"/>
      <point x="900" y="560.8888888888889"/>
    </contour>
  </outline>
</glyph>
<glyph name="uniE02F" format="2">
  <advance width="1000"/>
  <unicode hex="E02F"/>
  <outline>
    <contour>
      <point x="980" y="340" type="curve" smooth="yes"/>
      <point x="980" y="605"/>
      <point x="765" y="820"/>
      <point x="500" y="820" type="curve" smooth="yes"/>
      <point x="235" y="820"/>
      <point x="20" y="605"/>
      <point x="20" y="340" type="curve" smooth="yes"/>
      <point x="20" y="75"/>
      <point x="235" y="-140"/>
      <point x="500" y="-140" type="curve" smooth="yes"/>
      <point x="765" y="-140"/>
      <point x="980" y="75"/>
    </contour>
    <contour>
      <point x="900" y="340" type="curve" smooth="yes"/>
      <point x="900" y="119"/>
      <point x="721" y="-60"/>
      <point x="500" y="-60" type="curve" smooth="yes"/>
      <point x="279" y="-60"/>
      <point x="100" y="119"/>
      <point x="100" y="340" type="curve" smooth="yes"/>
      <point x="100" y="561"/>
      <point x="279" y="740"/>
      <point x="500" y="740" type="curve" smooth="yes"/>
      <point x="721" y="740"/>
      <point x="900" y="561"/>
    </contour>
    <contour>
      <point x="267" y="163" type="line" smooth="yes"/>
      <point x="251" y="147"/>
      <point x="251" y="123"/>
      <point x="267" y="107" type="curve" smooth="yes"/>
      <point x="283" y="91"/>
      <point x="307" y="91"/>
      <point x="323" y="107" type="curve" smooth="yes"/>
      <point x="448" y="232" type="line"/>
      <point x="464" y="224"/>
      <point x="481" y="220"/>
      <point x="500" y="220" type="curve" smooth="yes"/>
      <point x="519" y="220"/>
      <point x="536" y="224"/>
      <point x="552" y="232" type="curve"/>
      <point x="677" y="107" type="line" smooth="yes"/>
      <point x="693" y="91"/>
      <point x="717" y="91"/>
      <point x="733" y="107" type="curve" smooth="yes"/>
      <point x="749" y="123"/>
      <point x="749" y="147"/>
      <point x="733" y="163" type="curve" smooth="yes"/>
      <point x="608" y="288" type="line"/>
      <point x="616" y="304"/>
      <point x="620" y="321"/>
      <point x="620" y="340" type="curve" smooth="yes"/>
      <point x="620" y="359"/>
      <point x="616" y="376"/>
      <point x="608" y="392" type="curve"/>
      <point x="733" y="517" type="line" smooth="yes"/>
      <point x="749" y="533"/>
      <point x="749" y="557"/>
      <point x="733" y="573" type="curve" smooth="yes"/>
      <point x="717" y="589"/>
      <point x="693" y="589"/>
      <point x="677" y="573" type="curve" smooth="yes"/>
      <point x="552" y="448" type="line"/>
      <point x="536" y="456"/>
      <point x="519" y="460"/>
      <point x="500" y="460" type="curve" smooth="yes"/>
      <point x="481" y="460"/>
      <point x="464" y="456"/>
      <point x="448" y="448" type="curve"/>
      <point x="323" y="573" type="line" smooth="yes"/>
      <point x="307" y="589"/>
      <point x="283" y="589"/>
      <point x="267" y="573" type="curve" smooth="yes"/>
      <point x="251" y="557"/>
      <point x="251" y="533"/>
      <point x="267" y="517" type="curve" smooth="yes"/>
      <point x="392" y="392" type="line"/>
      <point x="384" y="376"/>
      <point x="380" y="359"/>
      <point x="380" y="340" type="curve" smooth="yes"/>
      <point x="380" y="321"/>
      <point x="384" y="304"/>
      <point x="392" y="288" type="curve"/>
    </contour>
  </outline>
</glyph>
<glyph name="uniE031" format="2">
  <advance width="1000"/>
  <unicode hex="E031"/>
  <outline>
    <contour>
      <point x="625" y="340" type="curve" smooth="yes"/>
      <point x="625" y="409.3333333333333"/>
      <point x="569.3333333333334" y="465"/>
      <point x="500" y="465" type="curve" smooth="yes"/>
      <point x="430.6666666666667" y="465"/>
      <point x="375" y="409.3333333333333"/>
      <point x="375" y="340" type="curve" smooth="yes"/>
      <point x="375" y="270.6666666666667"/>
      <point x="430.6666666666667" y="215"/>
      <point x="500" y="215" type="curve" smooth="yes"/>
      <point x="569.3333333333334" y="215"/>
      <point x="625" y="270.6666666666667"/>
    </contour>
  </outline>
</glyph>
<glyph name="uniE033" format="2">
  <advance width="1000"/>
  <unicode hex="E033"/>
  <outline>
    <contour>
      <point x="295" y="10" type="curve" smooth="yes"/>
      <point x="295" y="79.33333333333333"/>
      <point x="239.33333333333331" y="135"/>
      <point x="170" y="135" type="curve" smooth="yes"/>
      <point x="100.66666666666667" y="135"/>
      <point x="45" y="79.33333333333333"/>
      <point x="45" y="10" type="curve" smooth="yes"/>
      <point x="45" y="-59.33333333333333"/>
      <point x="100.66666666666667" y="-115"/>
      <point x="170" y="-115" type="curve" smooth="yes"/>
      <point x="239.33333333333331" y="-115"/>
      <point x="295" y="-59.33333333333333"/>
    </contour>
    <contour>
      <point x="625" y="340" type="curve" smooth="yes"/>
      <point x="625" y="409.3333333333333"/>
      <point x="569.3333333333334" y="465"/>
      <point x="500" y="465" type="curve" smooth="yes"/>
      <point x="430.6666666666667" y="465"/>
      <point x="375" y="409.3333333333333"/>
      <point x="375" y="340" type="curve" smooth="yes"/>
      <point x="375" y="270.6666666666667"/>
      <point x="430.6666666666667" y="215"/>
      <point x="500" y="215" type="curve" smooth="yes"/>
      <point x="569.3333333333334" y="215"/>
      <point x="625" y="270.6666666666667"/>
    </contour>
    <contour>
      <point x="955" y="670" type="curve" smooth="yes"/>
      <point x="955" y="739.3333333333334"/>
      <point x="899.3333333333334" y="795"/>
      <point x="830" y="795" type="curve" smooth="yes"/>
      <point x="760.6666666666666" y="795"/>
      <point x="705" y="739.3333333333334"/>
      <point x="705" y="670" type="curve" smooth="yes"/>
      <point x="705" y="600.6666666666666"/>
      <point x="760.6666666666666" y="545"/>
      <point x="830" y="545" type="curve" smooth="yes"/>
      <point x="899.3333333333334" y="545"/>
      <point x="955" y="600.6666666666666"/>
    </contour>
  </outline>
</glyph>
<glyph name="uniE040" format="2">
  <advance width="1000"/>
  <unicode hex="E040"/>
  <outline>
    <contour>
      <point x="980" y="340" type="curve" smooth="yes"/>
      <point x="980" y="390"/>
      <point x="940" y="430"/>
      <point x="890" y="430" type="curve" smooth="yes"/>
      <point x="840" y="430"/>
      <point x="800" y="390"/>
      <point x="800" y="340" type="curve" smooth="yes"/>
      <point x="800" y="290"/>
      <point x="840" y="250"/>
      <point x="890" y="250" type="curve" smooth="yes"/>
      <point x="940" y="250"/>
      <point x="980" y="290"/>
    </contour>
    <contour>
      <point x="500" y="820" type="curve" smooth="yes"/>
      <point x="450" y="820"/>
      <point x="410" y="780"/>
      <point x="410" y="730" type="curve" smooth="yes"/>
      <point x="410" y="680"/>
      <point x="450" y="640"/>
      <point x="500" y="640" type="curve" smooth="yes"/>
      <point x="550" y="640"/>
      <point x="590" y="680"/>
      <point x="590" y="730" type="curve" smooth="yes"/>
      <point x="590" y="780"/>
      <point x="550" y="820"/>
    </contour>
    <contour>
      <point x="20" y="340" type="curve" smooth="yes"/>
      <point x="20" y="290"/>
      <point x="60" y="250"/>
      <point x="110" y="250" type="curve" smooth="yes"/>
      <point x="160" y="250"/>
      <point x="200" y="290"/>
      <point x="200" y="340" type="curve" smooth="yes"/>
      <point x="200" y="390"/>
      <point x="160" y="430"/>
      <point x="110" y="430" type="curve" smooth="yes"/>
      <point x="60" y="430"/>
      <point x="20" y="390"/>
    </contour>
    <contour>
      <point x="500" y="-140" type="curve" smooth="yes"/>
      <point x="550" y="-140"/>
      <point x="590" y="-100"/>
      <point x="590" y="-50" type="curve" smooth="yes"/>
      <point x="590" y="0"/>
      <point x="550" y="40"/>
      <point x="500" y="40" type="curve" smooth="yes"/>
      <point x="450" y="40"/>
      <point x="410" y="0"/>
      <point x="410" y="-50" type="curve" smooth="yes"/>
      <point x="410" y="-100"/>
      <point x="450" y="-140"/>
    </contour>
    <contour>
      <point x="866" y="616" type="curve" smooth="yes"/>
      <point x="866" y="666"/>
      <point x="826" y="706"/>
      <point x="776" y="706" type="curve" smooth="yes"/>
      <point x="726" y="706"/>
      <point x="686" y="666"/>
      <point x="686" y="616" type="curve" smooth="yes"/>
      <point x="686" y="566"/>
      <point x="726" y="526"/>
      <point x="776" y="526" type="curve" smooth="yes"/>
      <point x="826" y="526"/>
      <point x="866" y="566"/>
    </contour>
    <contour>
      <point x="866" y="64" type="curve" smooth="yes"/>
      <point x="866" y="114"/>
      <point x="826" y="154"/>
      <point x="776" y="154" type="curve" smooth="yes"/>
      <point x="726" y="154"/>
      <point x="686" y="114"/>
      <point x="686" y="64" type="curve" smooth="yes"/>
      <point x="686" y="14"/>
      <point x="726" y="-26"/>
      <point x="776" y="-26" type="curve" smooth="yes"/>
      <point x="826" y="-26"/>
      <point x="866" y="14"/>
    </contour>
    <contour>
      <point x="314" y="616" type="curve" smooth="yes"/>
      <point x="314" y="666"/>
      <point x="274" y="706"/>
      <point x="224" y="706" type="curve" smooth="yes"/>
      <point x="174" y="706"/>
      <point x="134" y="666"/>
      <point x="134" y="616" type="curve" smooth="yes"/>
      <point x="134" y="566"/>
      <point x="174" y="526"/>
      <point x="224" y="526" type="curve" smooth="yes"/>
      <point x="274" y="526"/>
      <point x="314" y="566"/>
    </contour>
    <contour>
      <point x="314" y="64" type="curve" smooth="yes"/>
      <point x="314" y="114"/>
      <point x="274" y="154"/>
      <point x="224" y="154" type="curve" smooth="yes"/>
      <point x="174" y="154"/>
      <point x="134" y="114"/>
      <point x="134" y="64" type="curve" smooth="yes"/>
      <point x="134" y="14"/>
      <point x="174" y="-26"/>
      <point x="224" y="-26" type="curve" smooth="yes"/>
      <point x="274" y="-26"/>
      <point x="314" y="14"/>
    </contour>
    <contour>
      <point x="710" y="340" type="curve" smooth="yes"/>
      <point x="710" y="456.1777777777778"/>
      <point x="616.1777777777778" y="550"/>
      <point x="500" y="550" type="curve" smooth="yes"/>
      <point x="383.8222222222222" y="550"/>
      <point x="290" y="456.1777777777778"/>
      <point x="290" y="340" type="curve" smooth="yes"/>
      <point x="290" y="223.82222222222222"/>
      <point x="383.8222222222222" y="130"/>
      <point x="500" y="130" type="curve" smooth="yes"/>
      <point x="616.1777777777778" y="130"/>
      <point x="710" y="223.82222222222222"/>
    </contour>
  </outline>
</glyph>
<glyph name="uniE042" format="2">
  <advance width="1000"/>
  <unicode hex="E042"/>
  <outline>
    <contour>
      <point x="980" y="340" type="curve" smooth="yes"/>
      <point x="980" y="390"/>
      <point x="940" y="430"/>
      <point x="890" y="430" type="curve" smooth="yes"/>
      <point x="840" y="430"/>
      <point x="800" y="390"/>
      <point x="800" y="340" type="curve" smooth="yes"/>
      <point x="800" y="290"/>
      <point x="840" y="250"/>
      <point x="890" y="250" type="curve" smooth="yes"/>
      <point x="940" y="250"/>
      <point x="980" y="290"/>
    </contour>
    <contour>
      <point x="20" y="340" type="curve" smooth="yes"/>
      <point x="20" y="290"/>
      <point x="60" y="250"/>
      <point x="110" y="250" type="curve" smooth="yes"/>
      <point x="160" y="250"/>
      <point x="200" y="290"/>
      <point x="200" y="340" type="curve" smooth="yes"/>
      <point x="200" y="390"/>
      <point x="160" y="430"/>
      <point x="110" y="430" type="curve" smooth="yes"/>
      <point x="60" y="430"/>
      <point x="20" y="390"/>
    </contour>
    <contour>
      <point x="500" y="-140" type="curve" smooth="yes"/>
      <point x="550" y="-140"/>
      <point x="590" y="-100"/>
      <point x="590" y="-50" type="curve" smooth="yes"/>
      <point x="590" y="0"/>
      <point x="550" y="40"/>
      <point x="500" y="40" type="curve" smooth="yes"/>
      <point x="450" y="40"/>
      <point x="410" y="0"/>
      <point x="410" y="-50" type="curve" smooth="yes"/>
      <point x="410" y="-100"/>
      <point x="450" y="-140"/>
    </contour>
    <contour>
      <point x="866" y="616" type="curve" smooth="yes"/>
      <point x="866" y="666"/>
      <point x="826" y="706"/>
      <point x="776" y="706" type="curve" smooth="yes"/>
      <point x="726" y="706"/>
      <point x="686" y="666"/>
      <point x="686" y="616" type="curve" smooth="yes"/>
      <point x="686" y="566"/>
      <point x="726" y="526"/>
      <point x="776" y="526" type="curve" smooth="yes"/>
      <point x="826" y="526"/>
      <point x="866" y="566"/>
    </contour>
    <contour>
      <point x="866" y="64" type="curve" smooth="yes"/>
      <point x="866" y="114"/>
      <point x="826" y="154"/>
      <point x="776" y="154" type="curve" smooth="yes"/>
      <point x="726" y="154"/>
      <point x="686" y="114"/>
      <point x="686" y="64" type="curve" smooth="yes"/>
      <point x="686" y="14"/>
      <point x="726" y="-26"/>
      <point x="776" y="-26" type="curve" smooth="yes"/>
      <point x="826" y="-26"/>
      <point x="866" y="14"/>
    </contour>
    <contour>
      <point x="314" y="616" type="curve" smooth="yes"/>
      <point x="314" y="666"/>
      <point x="274" y="706"/>
      <point x="224" y="706" type="curve" smooth="yes"/>
      <point x="174" y="706"/>
      <point x="134" y="666"/>
      <point x="134" y="616" type="curve" smooth="yes"/>
      <point x="134" y="566"/>
      <point x="174" y="526"/>
      <point x="224" y="526" type="curve" smooth="yes"/>
      <point x="274" y="526"/>
      <point x="314" y="566"/>
    </contour>
    <contour>
      <point x="314" y="64" type="curve" smooth="yes"/>
      <point x="314" y="114"/>
      <point x="274" y="154"/>
      <point x="224" y="154" type="curve" smooth="yes"/>
      <point x="174" y="154"/>
      <point x="134" y="114"/>
      <point x="134" y="64" type="curve" smooth="yes"/>
      <point x="134" y="14"/>
      <point x="174" y="-26"/>
      <point x="224" y="-26" type="curve" smooth="yes"/>
      <point x="274" y="-26"/>
      <point x="314" y="14"/>
    </contour>
    <contour>
      <point x="700" y="340" type="curve" smooth="yes"/>
      <point x="700" y="450.66666666666663"/>
      <point x="610.6666666666666" y="540"/>
      <point x="500" y="540" type="curve" smooth="yes"/>
      <point x="389.33333333333337" y="540"/>
      <point x="300" y="450.66666666666663"/>
      <point x="300" y="340" type="curve" smooth="yes"/>
      <point x="300" y="229.33333333333334"/>
      <point x="389.33333333333337" y="140"/>
      <point x="500" y="140" type="curve" smooth="yes"/>
      <point x="610.6666666666666" y="140"/>
      <point x="700" y="229.33333333333334"/>
    </contour>
    <contour>
      <point x="630" y="340" type="curve" smooth="yes"/>
      <point x="630" y="267.9111111111111"/>
      <point x="572.0888888888888" y="210"/>
      <point x="500" y="210" type="curve" smooth="yes"/>
      <point x="427.9111111111111" y="210"/>
      <point x="370" y="267.9111111111111"/>
      <point x="370" y="340" type="curve" smooth="yes"/>
      <point x="370" y="412.0888888888889"/>
      <point x="427.9111111111111" y="470"/>
      <point x="500" y="470" type="curve" smooth="yes"/>
      <point x="572.0888888888888" y="470"/>
      <point x="630" y="412.0888888888889"/>
    </contour>
    <contour>
      <point x="500" y="820" type="curve" smooth="yes"/>
      <point x="438.93333333333334" y="820"/>
      <point x="390" y="771.0666666666666"/>
      <point x="390" y="710" type="curve" smooth="yes"/>
      <point x="390" y="648.9333333333334"/>
      <point x="438.93333333333334" y="600"/>
      <point x="500" y="600" type="curve" smooth="yes"/>
      <point x="561.0666666666666" y="600"/>
      <point x="610" y="648.9333333333334"/>
      <point x="610" y="710" type="curve" smooth="yes"/>
      <point x="610" y="771.0666666666666"/>
      <point x="561.0666666666666" y="820"/>
    </contour>
    <contour>
      <point x="500" y="770" type="curve" smooth="yes"/>
      <point x="533.5111111111111" y="770"/>
      <point x="560" y="743.5111111111111"/>
      <point x="560" y="710" type="curve" smooth="yes"/>
      <point x="560" y="676.4888888888889"/>
      <point x="533.5111111111111" y="650"/>
      <point x="500" y="650" type="curve" smooth="yes"/>
      <point x="466.4888888888889" y="650"/>
      <point x="440" y="676.4888888888889"/>
      <point x="440" y="710" type="curve" smooth="yes"/>
      <point x="440" y="743.5111111111111"/>
      <point x="466.4888888888889" y="770"/>
    </contour>
  </outline>
</glyph>
<glyph name="uniE044" format="2">
  <advance width="1000"/>
  <unicode hex="E044"/>
  <outline>
    <contour>
      <point x="20" y="340" type="curve" smooth="yes"/>
      <point x="20" y="290"/>
      <point x="60" y="250"/>
      <point x="110" y="250" type="curve" smooth="yes"/>
      <point x="160" y="250"/>
      <point x="200" y="290"/>
      <point x="200" y="340" type="curve" smooth="yes"/>
      <point x="200" y="390"/>
      <point x="160" y="430"/>
      <point x="110" y="430" type="curve" smooth="yes"/>
      <point x="60" y="430"/>
      <point x="20" y="390"/>
    </contour>
    <contour>
      <point x="500" y="-140" type="curve" smooth="yes"/>
      <point x="550" y="-140"/>
      <point x="590" y="-100"/>
      <point x="590" y="-50" type="curve" smooth="yes"/>
      <point x="590" y="0"/>
      <point x="550" y="40"/>
      <point x="500" y="40" type="curve" smooth="yes"/>
      <point x="450" y="40"/>
      <point x="410" y="0"/>
      <point x="410" y="-50" type="curve" smooth="yes"/>
      <point x="410" y="-100"/>
      <point x="450" y="-140"/>
    </contour>
    <contour>
      <point x="866" y="64" type="curve" smooth="yes"/>
      <point x="866" y="114"/>
      <point x="826" y="154"/>
      <point x="776" y="154" type="curve" smooth="yes"/>
      <point x="726" y="154"/>
      <point x="686" y="114"/>
      <point x="686" y="64" type="curve" smooth="yes"/>
      <point x="686" y="14"/>
      <point x="726" y="-26"/>
      <point x="776" y="-26" type="curve" smooth="yes"/>
      <point x="826" y="-26"/>
      <point x="866" y="14"/>
    </contour>
    <contour>
      <point x="314" y="616" type="curve" smooth="yes"/>
      <point x="314" y="666"/>
      <point x="274" y="706"/>
      <point x="224" y="706" type="curve" smooth="yes"/>
      <point x="174" y="706"/>
      <point x="134" y="666"/>
      <point x="134" y="616" type="curve" smooth="yes"/>
      <point x="134" y="566"/>
      <point x="174" y="526"/>
      <point x="224" y="526" type="curve" smooth="yes"/>
      <point x="274" y="526"/>
      <point x="314" y="566"/>
    </contour>
    <contour>
      <point x="314" y="64" type="curve" smooth="yes"/>
      <point x="314" y="114"/>
      <point x="274" y="154"/>
      <point x="224" y="154" type="curve" smooth="yes"/>
      <point x="174" y="154"/>
      <point x="134" y="114"/>
      <point x="134" y="64" type="curve" smooth="yes"/>
      <point x="134" y="14"/>
      <point x="174" y="-26"/>
      <point x="224" y="-26" type="curve" smooth="yes"/>
      <point x="274" y="-26"/>
      <point x="314" y="14"/>
    </contour>
    <contour>
      <point x="700" y="340" type="curve" smooth="yes"/>
      <point x="700" y="450.66666666666663"/>
      <point x="610.6666666666666" y="540"/>
      <point x="500" y="540" type="curve" smooth="yes"/>
      <point x="389.33333333333337" y="540"/>
      <point x="300" y="450.66666666666663"/>
      <point x="300" y="340" type="curve" smooth="yes"/>
      <point x="300" y="229.33333333333334"/>
      <point x="389.33333333333337" y="140"/>
      <point x="500" y="140" type="curve" smooth="yes"/>
      <point x="610.6666666666666" y="140"/>
      <point x="700" y="229.33333333333334"/>
    </contour>
    <contour>
      <point x="630" y="340" type="curve" smooth="yes"/>
      <point x="630" y="267.9111111111111"/>
      <point x="572.0888888888888" y="210"/>
      <point x="500" y="210" type="curve" smooth="yes"/>
      <point x="427.9111111111111" y="210"/>
      <point x="370" y="267.9111111111111"/>
      <point x="370" y="340" type="curve" smooth="yes"/>
      <point x="370" y="412.0888888888889"/>
      <point x="427.9111111111111" y="470"/>
      <point x="500" y="470" type="curve" smooth="yes"/>
      <point x="572.0888888888888" y="470"/>
      <point x="630" y="412.0888888888889"/>
    </contour>
    <contour>
      <point x="980" y="340" type="curve" smooth="yes"/>
      <point x="980" y="401.06666666666666"/>
      <point x="931.0666666666666" y="450"/>
      <point x="870" y="450" type="curve" smooth="yes"/>
      <point x="808.9333333333334" y="450"/>
      <point x="760" y="401.06666666666666"/>
      <point x="760" y="340" type="curve" smooth="yes"/>
      <point x="760" y="278.93333333333334"/>
      <point x="808.9333333333334" y="230"/>
      <point x="870" y="230" type="curve" smooth="yes"/>
      <point x="931.0666666666666" y="230"/>
      <point x="980" y="278.93333333333334"/>
    </contour>
    <contour>
      <point x="930" y="340" type="curve" smooth="yes"/>
      <point x="930" y="306.4888888888889"/>
      <point x="903.5111111111111" y="280"/>
      <point x="870" y="280" type="curve" smooth="yes"/>
      <point x="836.4888888888889" y="280"/>
      <point x="810" y="306.4888888888889"/>
      <point x="810" y="340" type="curve" smooth="yes"/>
      <point x="810" y="373.5111111111111"/>
      <point x="836.4888888888889" y="400"/>
      <point x="870" y="400" type="curve" smooth="yes"/>
      <point x="903.5111111111111" y="400"/>
      <point x="930" y="373.5111111111111"/>
    </contour>
    <contour>
      <point x="610" y="710" type="curve" smooth="yes"/>
      <point x="610" y="771.0666666666666"/>
      <point x="561.0666666666666" y="820"/>
      <point x="500" y="820" type="curve" smooth="yes"/>
      <point x="438.93333333333334" y="820"/>
      <point x="390" y="771.0666666666666"/>
      <point x="390" y="710" type="curve" smooth="yes"/>
      <point x="390" y="648.9333333333334"/>
      <point x="438.93333333333334" y="600"/>
      <point x="500" y="600" type="curve" smooth="yes"/>
      <point x="561.0666666666666" y="600"/>
      <point x="610" y="648.9333333333334"/>
    </contour>
    <contour>
      <point x="560" y="710" type="curve" smooth="yes"/>
      <point x="560" y="676.4888888888889"/>
      <point x="533.5111111111111" y="650"/>
      <point x="500" y="650" type="curve" smooth="yes"/>
      <point x="466.4888888888889" y="650"/>
      <point x="440" y="676.4888888888889"/>
      <point x="440" y="710" type="curve" smooth="yes"/>
      <point x="440" y="743.5111111111111"/>
      <point x="466.4888888888889" y="770"/>
      <point x="500" y="770" type="curve" smooth="yes"/>
      <point x="533.5111111111111" y="770"/>
      <point x="560" y="743.5111111111111"/>
    </contour>
    <contour>
      <point x="872" y="602" type="curve" smooth="yes"/>
      <point x="872" y="663.0666666666666"/>
      <point x="823.0666666666666" y="712"/>
      <point x="762" y="712" type="curve" smooth="yes"/>
      <point x="700.9333333333334" y="712"/>
      <point x="652" y="663.0666666666666"/>
      <point x="652" y="602" type="curve" smooth="yes"/>
      <point x="652" y="540.9333333333334"/>
      <point x="700.9333333333334" y="492"/>
      <point x="762" y="492" type="curve" smooth="yes"/>
      <point x="823.0666666666666" y="492"/>
      <point x="872" y="540.9333333333334"/>
    </contour>
    <contour>
      <point x="822" y="602" type="curve" smooth="yes"/>
      <point x="822" y="568.4888888888889"/>
      <point x="795.5111111111111" y="542"/>
      <point x="762" y="542" type="curve" smooth="yes"/>
      <point x="728.4888888888889" y="542"/>
      <point x="702" y="568.4888888888889"/>
      <point x="702" y="602" type="curve" smooth="yes"/>
      <point x="702" y="635.5111111111111"/>
      <point x="728.4888888888889" y="662"/>
      <point x="762" y="662" type="curve" smooth="yes"/>
      <point x="795.5111111111111" y="662"/>
      <point x="822" y="635.5111111111111"/>
    </contour>
  </outline>
</glyph>
<glyph name="uniE046" format="2">
  <advance width="1000"/>
  <unicode hex="E046"/>
  <outline>
    <contour>
      <point x="20" y="340" type="curve" smooth="yes"/>
      <point x="20" y="290"/>
      <point x="60" y="250"/>
      <point x="110" y="250" type="curve" smooth="yes"/>
      <point x="160" y="250"/>
      <point x="200" y="290"/>
      <point x="200" y="340" type="curve" smooth="yes"/>
      <point x="200" y="390"/>
      <point x="160" y="430"/>
      <point x="110" y="430" type="curve" smooth="yes"/>
      <point x="60" y="430"/>
      <point x="20" y="390"/>
    </contour>
    <contour>
      <point x="314" y="616" type="curve" smooth="yes"/>
      <point x="314" y="666"/>
      <point x="274" y="706"/>
      <point x="224" y="706" type="curve" smooth="yes"/>
      <point x="174" y="706"/>
      <point x="134" y="666"/>
      <point x="134" y="616" type="curve" smooth="yes"/>
      <point x="134" y="566"/>
      <point x="174" y="526"/>
      <point x="224" y="526" type="curve" smooth="yes"/>
      <point x="274" y="526"/>
      <point x="314" y="566"/>
    </contour>
    <contour>
      <point x="314" y="64" type="curve" smooth="yes"/>
      <point x="314" y="114"/>
      <point x="274" y="154"/>
      <point x="224" y="154" type="curve" smooth="yes"/>
      <point x="174" y="154"/>
      <point x="134" y="114"/>
      <point x="134" y="64" type="curve" smooth="yes"/>
      <point x="134" y="14"/>
      <point x="174" y="-26"/>
      <point x="224" y="-26" type="curve" smooth="yes"/>
      <point x="274" y="-26"/>
      <point x="314" y="14"/>
    </contour>
    <contour>
      <point x="700" y="340" type="curve" smooth="yes"/>
      <point x="700" y="450.66666666666663"/>
      <point x="610.6666666666666" y="540"/>
      <point x="500" y="540" type="curve" smooth="yes"/>
      <point x="389.33333333333337" y="540"/>
      <point x="300" y="450.66666666666663"/>
      <point x="300" y="340" type="curve" smooth="yes"/>
      <point x="300" y="229.33333333333334"/>
      <point x="389.33333333333337" y="140"/>
      <point x="500" y="140" type="curve" smooth="yes"/>
      <point x="610.6666666666666" y="140"/>
      <point x="700" y="229.33333333333334"/>
    </contour>
    <contour>
      <point x="630" y="340" type="curve" smooth="yes"/>
      <point x="630" y="267.9111111111111"/>
      <point x="572.0888888888888" y="210"/>
      <point x="500" y="210" type="curve" smooth="yes"/>
      <point x="427.9111111111111" y="210"/>
      <point x="370" y="267.9111111111111"/>
      <point x="370" y="340" type="curve" smooth="yes"/>
      <point x="370" y="412.0888888888889"/>
      <point x="427.9111111111111" y="470"/>
      <point x="500" y="470" type="curve" smooth="yes"/>
      <point x="572.0888888888888" y="470"/>
      <point x="630" y="412.0888888888889"/>
    </contour>
    <contour>
      <point x="980" y="340" type="curve" smooth="yes"/>
      <point x="980" y="401.06666666666666"/>
      <point x="931.0666666666666" y="450"/>
      <point x="870" y="450" type="curve" smooth="yes"/>
      <point x="808.9333333333334" y="450"/>
      <point x="760" y="401.06666666666666"/>
      <point x="760" y="340" type="curve" smooth="yes"/>
      <point x="760" y="278.93333333333334"/>
      <point x="808.9333333333334" y="230"/>
      <point x="870" y="230" type="curve" smooth="yes"/>
      <point x="931.0666666666666" y="230"/>
      <point x="980" y="278.93333333333334"/>
    </contour>
    <contour>
      <point x="930" y="340" type="curve" smooth="yes"/>
      <point x="930" y="306.4888888888889"/>
      <point x="903.5111111111111" y="280"/>
      <point x="870" y="280" type="curve" smooth="yes"/>
      <point x="836.4888888888889" y="280"/>
      <point x="810" y="306.4888888888889"/>
      <point x="810" y="340" type="curve" smooth="yes"/>
      <point x="810" y="373.5111111111111"/>
      <point x="836.4888888888889" y="400"/>
      <point x="870" y="400" type="curve" smooth="yes"/>
      <point x="903.5111111111111" y="400"/>
      <point x="930" y="373.5111111111111"/>
    </contour>
    <contour>
      <point x="610" y="710" type="curve" smooth="yes"/>
      <point x="610" y="771.0666666666666"/>
      <point x="561.0666666666666" y="820"/>
      <point x="500" y="820" type="curve" smooth="yes"/>
      <point x="438.93333333333334" y="820"/>
      <point x="390" y="771.0666666666666"/>
      <point x="390" y="710" type="curve" smooth="yes"/>
      <point x="390" y="648.9333333333334"/>
      <point x="438.93333333333334" y="600"/>
      <point x="500" y="600" type="curve" smooth="yes"/>
      <point x="561.0666666666666" y="600"/>
      <point x="610" y="648.9333333333334"/>
    </contour>
    <contour>
      <point x="560" y="710" type="curve" smooth="yes"/>
      <point x="560" y="676.4888888888889"/>
      <point x="533.5111111111111" y="650"/>
      <point x="500" y="650" type="curve" smooth="yes"/>
      <point x="466.4888888888889" y="650"/>
      <point x="440" y="676.4888888888889"/>
      <point x="440" y="710" type="curve" smooth="yes"/>
      <point x="440" y="743.5111111111111"/>
      <point x="466.4888888888889" y="770"/>
      <point x="500" y="770" type="curve" smooth="yes"/>
      <point x="533.5111111111111" y="770"/>
      <point x="560" y="743.5111111111111"/>
    </contour>
    <contour>
      <point x="872" y="602" type="curve" smooth="yes"/>
      <point x="872" y="663.0666666666666"/>
      <point x="823.0666666666666" y="712"/>
      <point x="762" y="712" type="curve" smooth="yes"/>
      <point x="700.9333333333334" y="712"/>
      <point x="652" y="663.0666666666666"/>
      <point x="652" y="602" type="curve" smooth="yes"/>
      <point x="652" y="540.9333333333334"/>
      <point x="700.9333333333334" y="492"/>
      <point x="762" y="492" type="curve" smooth="yes"/>
      <point x="823.0666666666666" y="492"/>
      <point x="872" y="540.9333333333334"/>
    </contour>
    <contour>
      <point x="822" y="602" type="curve" smooth="yes"/>
      <point x="822" y="568.4888888888889"/>
      <point x="795.5111111111111" y="542"/>
      <point x="762" y="542" type="curve" smooth="yes"/>
      <point x="728.4888888888889" y="542"/>
      <point x="702" y="568.4888888888889"/>
      <point x="702" y="602" type="curve" smooth="yes"/>
      <point x="702" y="635.5111111111111"/>
      <point x="728.4888888888889" y="662"/>
      <point x="762" y="662" type="curve" smooth="yes"/>
      <point x="795.5111111111111" y="662"/>
      <point x="822" y="635.5111111111111"/>
    </contour>
    <contour>
      <point x="872" y="78" type="curve" smooth="yes"/>
      <point x="872" y="139.06666666666666"/>
      <point x="823.0666666666666" y="188"/>
      <point x="762" y="188" type="curve" smooth="yes"/>
      <point x="700.9333333333334" y="188"/>
      <point x="652" y="139.06666666666666"/>
      <point x="652" y="78" type="curve" smooth="yes"/>
      <point x="652" y="16.933333333333337"/>
      <point x="700.9333333333334" y="-32"/>
      <point x="762" y="-32" type="curve" smooth="yes"/>
      <point x="823.0666666666666" y="-32"/>
      <point x="872" y="16.933333333333337"/>
    </contour>
    <contour>
      <point x="822" y="78" type="curve" smooth="yes"/>
      <point x="822" y="44.48888888888889"/>
      <point x="795.5111111111111" y="18"/>
      <point x="762" y="18" type="curve" smooth="yes"/>
      <point x="728.4888888888889" y="18"/>
      <point x="702" y="44.48888888888889"/>
      <point x="702" y="78" type="curve" smooth="yes"/>
      <point x="702" y="111.51111111111112"/>
      <point x="728.4888888888889" y="138"/>
      <point x="762" y="138" type="curve" smooth="yes"/>
      <point x="795.5111111111111" y="138"/>
      <point x="822" y="111.51111111111112"/>
    </contour>
    <contour>
      <point x="610" y="-30" type="curve" smooth="yes"/>
      <point x="610" y="31.066666666666663"/>
      <point x="561.0666666666666" y="80"/>
      <point x="500" y="80" type="curve" smooth="yes"/>
      <point x="438.93333333333334" y="80"/>
      <point x="390" y="31.066666666666663"/>
      <point x="390" y="-30" type="curve" smooth="yes"/>
      <point x="390" y="-91.06666666666666"/>
      <point x="438.93333333333334" y="-140"/>
      <point x="500" y="-140" type="curve" smooth="yes"/>
      <point x="561.0666666666666" y="-140"/>
      <point x="610" y="-91.06666666666666"/>
    </contour>
    <contour>
      <point x="560" y="-30" type="curve" smooth="yes"/>
      <point x="560" y="-63.51111111111111"/>
      <point x="533.5111111111111" y="-90"/>
      <point x="500" y="-90" type="curve" smooth="yes"/>
      <point x="466.4888888888889" y="-90"/>
      <point x="440" y="-63.51111111111111"/>
      <point x="440" y="-30" type="curve" smooth="yes"/>
      <point x="440" y="3.511111111111113"/>
      <point x="466.4888888888889" y="30"/>
      <point x="500" y="30" type="curve" smooth="yes"/>
      <point x="533.5111111111111" y="30"/>
      <point x="560" y="3.511111111111113"/>
    </contour>
  </outline>
</glyph>
<glyph name="uniE048" format="2">
  <advance width="1000"/>
  <unicode hex="E048"/>
  <outline>
    <contour>
      <point x="314" y="616" type="curve" smooth="yes"/>
      <point x="314" y="666"/>
      <point x="274" y="706"/>
      <point x="224" y="706" type="curve" smooth="yes"/>
      <point x="174" y="706"/>
      <point x="134" y="666"/>
      <point x="134" y="616" type="curve" smooth="yes"/>
      <point x="134" y="566"/>
      <point x="174" y="526"/>
      <point x="224" y="526" type="curve" smooth="yes"/>
      <point x="274" y="526"/>
      <point x="314" y="566"/>
    </contour>
    <contour>
      <point x="700" y="340" type="curve" smooth="yes"/>
      <point x="700" y="450.66666666666663"/>
      <point x="610.6666666666666" y="540"/>
      <point x="500" y="540" type="curve" smooth="yes"/>
      <point x="389.33333333333337" y="540"/>
      <point x="300" y="450.66666666666663"/>
      <point x="300" y="340" type="curve" smooth="yes"/>
      <point x="300" y="229.33333333333334"/>
      <point x="389.33333333333337" y="140"/>
      <point x="500" y="140" type="curve" smooth="yes"/>
      <point x="610.6666666666666" y="140"/>
      <point x="700" y="229.33333333333334"/>
    </contour>
    <contour>
      <point x="630" y="340" type="curve" smooth="yes"/>
      <point x="630" y="267.9111111111111"/>
      <point x="572.0888888888888" y="210"/>
      <point x="500" y="210" type="curve" smooth="yes"/>
      <point x="427.9111111111111" y="210"/>
      <point x="370" y="267.9111111111111"/>
      <point x="370" y="340" type="curve" smooth="yes"/>
      <point x="370" y="412.0888888888889"/>
      <point x="427.9111111111111" y="470"/>
      <point x="500" y="470" type="curve" smooth="yes"/>
      <point x="572.0888888888888" y="470"/>
      <point x="630" y="412.0888888888889"/>
    </contour>
    <contour>
      <point x="980" y="340" type="curve" smooth="yes"/>
      <point x="980" y="401.06666666666666"/>
      <point x="931.0666666666666" y="450"/>
      <point x="870" y="450" type="curve" smooth="yes"/>
      <point x="808.9333333333334" y="450"/>
      <point x="760" y="401.06666666666666"/>
      <point x="760" y="340" type="curve" smooth="yes"/>
      <point x="760" y="278.93333333333334"/>
      <point x="808.9333333333334" y="230"/>
      <point x="870" y="230" type="curve" smooth="yes"/>
      <point x="931.0666666666666" y="230"/>
      <point x="980" y="278.93333333333334"/>
    </contour>
    <contour>
      <point x="930" y="340" type="curve" smooth="yes"/>
      <point x="930" y="306.4888888888889"/>
      <point x="903.5111111111111" y="280"/>
      <point x="870" y="280" type="curve" smooth="yes"/>
      <point x="836.4888888888889" y="280"/>
      <point x="810" y="306.4888888888889"/>
      <point x="810" y="340" type="curve" smooth="yes"/>
      <point x="810" y="373.5111111111111"/>
      <point x="836.4888888888889" y="400"/>
      <point x="870" y="400" type="curve" smooth="yes"/>
      <point x="903.5111111111111" y="400"/>
      <point x="930" y="373.5111111111111"/>
    </contour>
    <contour>
      <point x="240" y="340" type="curve" smooth="yes"/>
      <point x="240" y="401.06666666666666"/>
      <point x="191.06666666666666" y="450"/>
      <point x="130" y="450" type="curve" smooth="yes"/>
      <point x="68.93333333333334" y="450"/>
      <point x="20" y="401.06666666666666"/>
      <point x="20" y="340" type="curve" smooth="yes"/>
      <point x="20" y="278.93333333333334"/>
      <point x="68.93333333333334" y="230"/>
      <point x="130" y="230" type="curve" smooth="yes"/>
      <point x="191.06666666666666" y="230"/>
      <point x="240" y="278.93333333333334"/>
    </contour>
    <contour>
      <point x="190" y="340" type="curve" smooth="yes"/>
      <point x="190" y="306.4888888888889"/>
      <point x="163.51111111111112" y="280"/>
      <point x="130" y="280" type="curve" smooth="yes"/>
      <point x="96.48888888888888" y="280"/>
      <point x="70" y="306.4888888888889"/>
      <point x="70" y="340" type="curve" smooth="yes"/>
      <point x="70" y="373.5111111111111"/>
      <point x="96.48888888888888" y="400"/>
      <point x="130" y="400" type="curve" smooth="yes"/>
      <point x="163.51111111111112" y="400"/>
      <point x="190" y="373.5111111111111"/>
    </contour>
    <contour>
      <point x="872" y="602" type="curve" smooth="yes"/>
      <point x="872" y="663.0666666666666"/>
      <point x="823.0666666666666" y="712"/>
      <point x="762" y="712" type="curve" smooth="yes"/>
      <point x="700.9333333333334" y="712"/>
      <point x="652" y="663.0666666666666"/>
      <point x="652" y="602" type="curve" smooth="yes"/>
      <point x="652" y="540.9333333333334"/>
      <point x="700.9333333333334" y="492"/>
      <point x="762" y="492" type="curve" smooth="yes"/>
      <point x="823.0666666666666" y="492"/>
      <point x="872" y="540.9333333333334"/>
    </contour>
    <contour>
      <point x="822" y="602" type="curve" smooth="yes"/>
      <point x="822" y="568.4888888888889"/>
      <point x="795.5111111111111" y="542"/>
      <point x="762" y="542" type="curve" smooth="yes"/>
      <point x="728.4888888888889" y="542"/>
      <point x="702" y="568.4888888888889"/>
      <point x="702" y="602" type="curve" smooth="yes"/>
      <point x="702" y="635.5111111111111"/>
      <point x="728.4888888888889" y="662"/>
      <point x="762" y="662" type="curve" smooth="yes"/>
      <point x="795.5111111111111" y="662"/>
      <point x="822" y="635.5111111111111"/>
    </contour>
    <contour>
      <point x="872" y="78" type="curve" smooth="yes"/>
      <point x="872" y="139.06666666666666"/>
      <point x="823.0666666666666" y="188"/>
      <point x="762" y="188" type="curve" smooth="yes"/>
      <point x="700.9333333333334" y="188"/>
      <point x="652" y="139.06666666666666"/>
      <point x="652" y="78" type="curve" smooth="yes"/>
      <point x="652" y="16.933333333333337"/>
      <point x="700.9333333333334" y="-32"/>
      <point x="762" y="-32" type="curve" smooth="yes"/>
      <point x="823.0666666666666" y="-32"/>
      <point x="872" y="16.933333333333337"/>
    </contour>
    <contour>
      <point x="822" y="78" type="curve" smooth="yes"/>
      <point x="822" y="44.48888888888889"/>
      <point x="795.5111111111111" y="18"/>
      <point x="762" y="18" type="curve" smooth="yes"/>
      <point x="728.4888888888889" y="18"/>
      <point x="702" y="44.48888888888889"/>
      <point x="702" y="78" type="curve" smooth="yes"/>
      <point x="702" y="111.51111111111112"/>
      <point x="728.4888888888889" y="138"/>
      <point x="762" y="138" type="curve" smooth="yes"/>
      <point x="795.5111111111111" y="138"/>
      <point x="822" y="111.51111111111112"/>
    </contour>
    <contour>
      <point x="348" y="78" type="curve" smooth="yes"/>
      <point x="348" y="139.06666666666666"/>
      <point x="299.06666666666666" y="188"/>
      <point x="238" y="188" type="curve" smooth="yes"/>
      <point x="176.93333333333334" y="188"/>
      <point x="128" y="139.06666666666666"/>
      <point x="128" y="78" type="curve" smooth="yes"/>
      <point x="128" y="16.933333333333337"/>
      <point x="176.93333333333334" y="-32"/>
      <point x="238" y="-32" type="curve" smooth="yes"/>
      <point x="299.06666666666666" y="-32"/>
      <point x="348" y="16.933333333333337"/>
    </contour>
    <contour>
      <point x="298" y="78" type="curve" smooth="yes"/>
      <point x="298" y="44.48888888888889"/>
      <point x="271.5111111111111" y="18"/>
      <point x="238" y="18" type="curve" smooth="yes"/>
      <point x="204.48888888888888" y="18"/>
      <point x="178" y="44.48888888888889"/>
      <point x="178" y="78" type="curve" smooth="yes"/>
      <point x="178" y="111.51111111111112"/>
      <point x="204.48888888888888" y="138"/>
      <point x="238" y="138" type="curve" smooth="yes"/>
      <point x="271.5111111111111" y="138"/>
      <point x="298" y="111.51111111111112"/>
    </contour>
    <contour>
      <point x="610" y="710" type="curve" smooth="yes"/>
      <point x="610" y="771.0666666666666"/>
      <point x="561.0666666666666" y="820"/>
      <point x="500" y="820" type="curve" smooth="yes"/>
      <point x="438.93333333333334" y="820"/>
      <point x="390" y="771.0666666666666"/>
      <point x="390" y="710" type="curve" smooth="yes"/>
      <point x="390" y="648.9333333333334"/>
      <point x="438.93333333333334" y="600"/>
      <point x="500" y="600" type="curve" smooth="yes"/>
      <point x="561.0666666666666" y="600"/>
      <point x="610" y="648.9333333333334"/>
    </contour>
    <contour>
      <point x="560" y="710" type="curve" smooth="yes"/>
      <point x="560" y="676.4888888888889"/>
      <point x="533.5111111111111" y="650"/>
      <point x="500" y="650" type="curve" smooth="yes"/>
      <point x="466.4888888888889" y="650"/>
      <point x="440" y="676.4888888888889"/>
      <point x="440" y="710" type="curve" smooth="yes"/>
      <point x="440" y="743.5111111111111"/>
      <point x="466.4888888888889" y="770"/>
      <point x="500" y="770" type="curve" smooth="yes"/>
      <point x="533.5111111111111" y="770"/>
      <point x="560" y="743.5111111111111"/>
    </contour>
    <contour>
      <point x="610" y="-30" type="curve" smooth="yes"/>
      <point x="610" y="31.066666666666663"/>
      <point x="561.0666666666666" y="80"/>
      <point x="500" y="80" type="curve" smooth="yes"/>
      <point x="438.93333333333334" y="80"/>
      <point x="390" y="31.066666666666663"/>
      <point x="390" y="-30" type="curve" smooth="yes"/>
      <point x="390" y="-91.06666666666666"/>
      <point x="438.93333333333334" y="-140"/>
      <point x="500" y="-140" type="curve" smooth="yes"/>
      <point x="561.0666666666666" y="-140"/>
      <point x="610" y="-91.06666666666666"/>
    </contour>
    <contour>
      <point x="560" y="-30" type="curve" smooth="yes"/>
      <point x="560" y="-63.51111111111111"/>
      <point x="533.5111111111111" y="-90"/>
      <point x="500" y="-90" type="curve" smooth="yes"/>
      <point x="466.4888888888889" y="-90"/>
      <point x="440" y="-63.51111111111111"/>
      <point x="440" y="-30" type="curve" smooth="yes"/>
      <point x="440" y="3.511111111111113"/>
      <point x="466.4888888888889" y="30"/>
      <point x="500" y="30" type="curve" smooth="yes"/>
      <point x="533.5111111111111" y="30"/>
      <point x="560" y="3.511111111111113"/>
    </contour>
  </outline>
</glyph>
<glyph name="uniE050" format="2">
  <advance width="1000"/>
  <unicode hex="E050"/>
  <outline>
    <contour>
      <point x="500" y="820" type="curve" smooth="yes"/>
      <point x="450" y="820"/>
      <point x="410" y="780"/>
      <point x="410" y="730" type="curve" smooth="yes"/>
      <point x="410" y="680"/>
      <point x="450" y="640"/>
      <point x="500" y="640" type="curve" smooth="yes"/>
      <point x="550" y="640"/>
      <point x="590" y="680"/>
      <point x="590" y="730" type="curve" smooth="yes"/>
      <point x="590" y="780"/>
      <point x="550" y="820"/>
    </contour>
    <contour>
      <point x="314" y="616" type="curve" smooth="yes"/>
      <point x="314" y="666"/>
      <point x="274" y="706"/>
      <point x="224" y="706" type="curve" smooth="yes"/>
      <point x="174" y="706"/>
      <point x="134" y="666"/>
      <point x="134" y="616" type="curve" smooth="yes"/>
      <point x="134" y="566"/>
      <point x="174" y="526"/>
      <point x="224" y="526" type="curve" smooth="yes"/>
      <point x="274" y="526"/>
      <point x="314" y="566"/>
    </contour>
    <contour>
      <point x="710" y="340" type="curve" smooth="yes"/>
      <point x="710" y="456.1777777777778"/>
      <point x="616.1777777777778" y="550"/>
      <point x="500" y="550" type="curve" smooth="yes"/>
      <point x="383.8222222222222" y="550"/>
      <point x="290" y="456.1777777777778"/>
      <point x="290" y="340" type="curve" smooth="yes"/>
      <point x="290" y="223.82222222222222"/>
      <point x="383.8222222222222" y="130"/>
      <point x="500" y="130" type="curve" smooth="yes"/>
      <point x="616.1777777777778" y="130"/>
      <point x="710" y="223.82222222222222"/>
    </contour>
  </outline>
</glyph>
<glyph name="uniE052" format="2">
  <advance width="1000"/>
  <unicode hex="E052"/>
  <outline>
    <contour>
      <point x="710" y="340" type="curve" smooth="yes"/>
      <point x="710" y="456.1777777777778"/>
      <point x="616.1777777777778" y="550"/>
      <point x="500" y="550" type="curve" smooth="yes"/>
      <point x="383.8222222222222" y="550"/>
      <point x="290" y="456.1777777777778"/>
      <point x="290" y="340" type="curve" smooth="yes"/>
      <point x="290" y="223.82222222222222"/>
      <point x="383.8222222222222" y="130"/>
      <point x="500" y="130" type="curve" smooth="yes"/>
      <point x="616.1777777777778" y="130"/>
      <point x="710" y="223.82222222222222"/>
    </contour>
  </outline>
</glyph>
<glyph name="uniE053" format="2">
  <advance width="1000"/>
  <unicode hex="E053"/>
  <outline>
    <contour>
      <point x="962.1676025390625" y="210" type="line"/>
      <point x="973.7855224609375" y="251.34884643554688"/>
      <point x="980" y="294.9525146484375"/>
      <point x="980" y="340" type="curve" smooth="yes"/>
      <point x="980" y="604.977783203125"/>
      <point x="764.977783203125" y="820"/>
      <point x="500" y="820" type="curve" smooth="yes"/>
      <point x="235.022216796875" y="820"/>
      <point x="20" y="604.977783203125"/>
      <point x="20" y="340" type="curve" smooth="yes"/>
      <point x="20" y="294.9525146484375"/>
      <point x="26.214488983154297" y="251.34884643554688"/>
      <point x="37.83242416381836" y="210" type="curve"/>
    </contour>
    <contour>
      <point x="78.6424331665039" y="110" type="line"/>
      <point x="160.15582275390625" y="-38.936954498291016"/>
      <point x="318.3380432128906" y="-140"/>
      <point x="500" y="-140" type="curve" smooth="yes"/>
      <point x="681.6619262695312" y="-140"/>
      <point x="839.8441772460938" y="-38.936954498291016"/>
      <point x="921.3575439453125" y="110" type="curve"/>
    </contour>
    <contour>
      <point x="630" y="530" type="curve" smooth="yes"/>
      <point x="630" y="457.9111111111111"/>
      <point x="572.0888888888888" y="400"/>
      <point x="500" y="400" type="curve" smooth="yes"/>
      <point x="427.9111111111111" y="400"/>
      <point x="370" y="457.9111111111111"/>
      <point x="370" y="530" type="curve" smooth="yes"/>
      <point x="370" y="602.0888888888888"/>
      <point x="427.9111111111111" y="660"/>
      <point x="500" y="660" type="curve" smooth="yes"/>
      <point x="572.0888888888888" y="660"/>
      <point x="630" y="602.0888888888888"/>
    </contour>
  </outline>
</glyph>
<glyph name="uniE054" format="2">
  <advance width="1000"/>
  <unicode hex="E054"/>
  <outline>
    <contour>
      <point x="962" y="210" type="line"/>
      <point x="974" y="251"/>
      <point x="980" y="295"/>
      <point x="980" y="340" type="curve" smooth="yes"/>
      <point x="980" y="605"/>
      <point x="765" y="820"/>
      <point x="500" y="820" type="curve" smooth="yes"/>
      <point x="235" y="820"/>
      <point x="20" y="605"/>
      <point x="20" y="340" type="curve" smooth="yes"/>
      <point x="20" y="295"/>
      <point x="26" y="251"/>
      <point x="38" y="210" type="curve"/>
    </contour>
    <contour>
      <point x="79" y="110" type="line"/>
      <point x="160" y="-39"/>
      <point x="318" y="-140"/>
      <point x="500" y="-140" type="curve" smooth="yes"/>
      <point x="682" y="-140"/>
      <point x="840" y="-39"/>
      <point x="921" y="110" type="curve"/>
    </contour>
    <contour>
      <point x="309" y="368" type="curve" smooth="yes"/>
      <point x="436" y="495" type="line"/>
      <point x="309" y="622" type="line" smooth="yes"/>
      <point x="291" y="640"/>
      <point x="291" y="668"/>
      <point x="309" y="686" type="curve" smooth="yes"/>
      <point x="327" y="704"/>
      <point x="355" y="704"/>
      <point x="373" y="686" type="curve" smooth="yes"/>
      <point x="500" y="559" type="line"/>
      <point x="627" y="686" type="line" smooth="yes"/>
      <point x="645" y="704"/>
      <point x="673" y="704"/>
      <point x="691" y="686" type="curve" smooth="yes"/>
      <point x="709" y="668"/>
      <point x="709" y="640"/>
      <point x="691" y="622" type="curve" smooth="yes"/>
      <point x="564" y="495" type="line"/>
      <point x="691" y="368" type="line" smooth="yes"/>
      <point x="709" y="350"/>
      <point x="709" y="322"/>
      <point x="691" y="304" type="curve" smooth="yes"/>
      <point x="673" y="286"/>
      <point x="645" y="286"/>
      <point x="627" y="304" type="curve" smooth="yes"/>
      <point x="500" y="431" type="line"/>
      <point x="373" y="304" type="line" smooth="yes"/>
      <point x="355" y="286"/>
      <point x="327" y="286"/>
      <point x="309" y="304" type="curve" smooth="yes"/>
      <point x="291" y="322"/>
      <point x="291" y="350"/>
    </contour>
  </outline>
</glyph>
<glyph name="uniE055" format="2">
  <advance width="1000"/>
  <unicode hex="E055"/>
  <outline>
    <contour>
      <point x="980" y="340" type="curve" smooth="yes"/>
      <point x="980" y="604.9777777777778"/>
      <point x="764.9777777777778" y="820"/>
      <point x="500" y="820" type="curve" smooth="yes"/>
      <point x="235.02222222222224" y="820"/>
      <point x="20" y="604.9777777777778"/>
      <point x="20" y="340" type="curve" smooth="yes"/>
      <point x="20" y="75.02222222222224"/>
      <point x="235.02222222222224" y="-140"/>
      <point x="500" y="-140" type="curve" smooth="yes"/>
      <point x="764.9777777777778" y="-140"/>
      <point x="980" y="75.02222222222224"/>
    </contour>
    <contour>
      <point x="250" y="260" type="curve"/>
      <point x="250" y="420" type="line"/>
      <point x="250" y="459.02222222222224"/>
      <point x="280.97777777777776" y="490"/>
      <point x="320" y="490" type="curve" smooth="yes"/>
      <point x="359.02222222222224" y="490"/>
      <point x="390" y="459.02222222222224"/>
      <point x="390" y="420" type="curve"/>
      <point x="390" y="260" type="line"/>
      <point x="390" y="220.97777777777776"/>
      <point x="359.02222222222224" y="190"/>
      <point x="320" y="190" type="curve" smooth="yes"/>
      <point x="280.97777777777776" y="190"/>
      <point x="250" y="220.97777777777776"/>
    </contour>
    <contour>
      <point x="610" y="260" type="curve"/>
      <point x="610" y="420" type="line"/>
      <point x="610" y="459.02222222222224"/>
      <point x="640.9777777777778" y="490"/>
      <point x="680" y="490" type="curve" smooth="yes"/>
      <point x="719.0222222222222" y="490"/>
      <point x="750" y="459.02222222222224"/>
      <point x="750" y="420" type="curve"/>
      <point x="750" y="260" type="line"/>
      <point x="750" y="220.97777777777776"/>
      <point x="719.0222222222222" y="190"/>
      <point x="680" y="190" type="curve" smooth="yes"/>
      <point x="640.9777777777778" y="190"/>
      <point x="610" y="220.97777777777776"/>
    </contour>
  </outline>
</glyph>
<glyph name="uniE056" format="2">
  <advance width="1000"/>
  <unicode hex="E056"/>
  <outline>
    <contour>
      <point x="280" y="265" type="line"/>
      <point x="280" y="231.48888888888888"/>
      <point x="306.4888888888889" y="205"/>
      <point x="340" y="205" type="curve" smooth="yes"/>
      <point x="373.5111111111111" y="205"/>
      <point x="400" y="231.48888888888888"/>
      <point x="400" y="265" type="curve"/>
      <point x="400" y="415" type="line"/>
      <point x="400" y="448.5111111111111"/>
      <point x="373.5111111111111" y="475"/>
      <point x="340" y="475" type="curve" smooth="yes"/>
      <point x="306.4888888888889" y="475"/>
      <point x="280" y="448.5111111111111"/>
      <point x="280" y="415" type="curve"/>
    </contour>
    <contour>
      <point x="600" y="265" type="line"/>
      <point x="600" y="231.48888888888888"/>
      <point x="626.4888888888889" y="205"/>
      <point x="660" y="205" type="curve" smooth="yes"/>
      <point x="693.5111111111111" y="205"/>
      <point x="720" y="231.48888888888888"/>
      <point x="720" y="265" type="curve"/>
      <point x="720" y="415" type="line"/>
      <point x="720" y="448.5111111111111"/>
      <point x="693.5111111111111" y="475"/>
      <point x="660" y="475" type="curve" smooth="yes"/>
      <point x="626.4888888888889" y="475"/>
      <point x="600" y="448.5111111111111"/>
      <point x="600" y="415" type="curve"/>
    </contour>
    <contour>
      <point x="980" y="340" type="curve" smooth="yes"/>
      <point x="980" y="604.9777777777778"/>
      <point x="764.9777777777778" y="820"/>
      <point x="500" y="820" type="curve" smooth="yes"/>
      <point x="235.02222222222224" y="820"/>
      <point x="20" y="604.9777777777778"/>
      <point x="20" y="340" type="curve" smooth="yes"/>
      <point x="20" y="75.02222222222224"/>
      <point x="235.02222222222224" y="-140"/>
      <point x="500" y="-140" type="curve" smooth="yes"/>
      <point x="764.9777777777778" y="-140"/>
      <point x="980" y="75.02222222222224"/>
    </contour>
    <contour>
      <point x="900" y="340" type="curve" smooth="yes"/>
      <point x="900" y="119.11111111111111"/>
      <point x="720.8888888888889" y="-60"/>
      <point x="500" y="-60" type="curve" smooth="yes"/>
      <point x="279.1111111111111" y="-60"/>
      <point x="100" y="119.11111111111111"/>
      <point x="100" y="340" type="curve" smooth="yes"/>
      <point x="100" y="560.8888888888889"/>
      <point x="279.1111111111111" y="740"/>
      <point x="500" y="740" type="curve" smooth="yes"/>
      <point x="720.8888888888889" y="740"/>
      <point x="900" y="560.8888888888889"/>
    </contour>
  </outline>
</glyph>
<glyph name="uniE057" format="2">
  <advance width="1000"/>
  <unicode hex="E057"/>
  <outline>
    <contour>
      <point x="790" y="540" type="curve" smooth="yes"/>
      <point x="790" y="700"/>
      <point x="660" y="830"/>
      <point x="500" y="830" type="curve" smooth="yes"/>
      <point x="340" y="830"/>
      <point x="210" y="700"/>
      <point x="210" y="540" type="curve" smooth="yes"/>
      <point x="210" y="507"/>
      <point x="216" y="475"/>
      <point x="226" y="445" type="curve"/>
      <point x="175" y="384"/>
      <point x="145" y="306"/>
      <point x="145" y="220" type="curve" smooth="yes"/>
      <point x="145" y="24"/>
      <point x="304" y="-135"/>
      <point x="500" y="-135" type="curve" smooth="yes"/>
      <point x="696" y="-135"/>
      <point x="855" y="24"/>
      <point x="855" y="220" type="curve" smooth="yes"/>
      <point x="855" y="306"/>
      <point x="825" y="384"/>
      <point x="774" y="445" type="curve"/>
      <point x="784" y="475"/>
      <point x="790" y="507"/>
    </contour>
    <contour>
      <point x="710" y="540" type="curve" smooth="yes"/>
      <point x="710" y="529"/>
      <point x="709" y="518"/>
      <point x="708" y="508" type="curve"/>
      <point x="649" y="550"/>
      <point x="578" y="575"/>
      <point x="500" y="575" type="curve" smooth="yes"/>
      <point x="422" y="575"/>
      <point x="351" y="550"/>
      <point x="292" y="508" type="curve"/>
      <point x="291" y="518"/>
      <point x="290" y="529"/>
      <point x="290" y="540" type="curve" smooth="yes"/>
      <point x="290" y="656"/>
      <point x="384" y="750"/>
      <point x="500" y="750" type="curve" smooth="yes"/>
      <point x="616" y="750"/>
      <point x="710" y="656"/>
    </contour>
    <contour>
      <point x="630" y="310" type="curve" smooth="yes"/>
      <point x="630" y="237.9111111111111"/>
      <point x="572.0888888888888" y="180"/>
      <point x="500" y="180" type="curve" smooth="yes"/>
      <point x="427.9111111111111" y="180"/>
      <point x="370" y="237.9111111111111"/>
      <point x="370" y="310" type="curve" smooth="yes"/>
      <point x="370" y="382.0888888888889"/>
      <point x="427.9111111111111" y="440"/>
      <point x="500" y="440" type="curve" smooth="yes"/>
      <point x="572.0888888888888" y="440"/>
      <point x="630" y="382.0888888888889"/>
    </contour>
    <contour>
      <point x="575" y="75" type="curve" smooth="yes"/>
      <point x="575" y="33.22222222222222"/>
      <point x="541.7777777777778" y="0"/>
      <point x="500" y="0" type="curve" smooth="yes"/>
      <point x="458.22222222222223" y="0"/>
      <point x="425" y="33.22222222222222"/>
      <point x="425" y="75" type="curve" smooth="yes"/>
      <point x="425" y="116.77777777777777"/>
      <point x="458.22222222222223" y="150"/>
      <point x="500" y="150" type="curve" smooth="yes"/>
      <point x="541.7777777777778" y="150"/>
      <point x="575" y="116.77777777777777"/>
    </contour>
  </outline>
</glyph>
<glyph name="uniE058" format="2">
  <advance width="1000"/>
  <unicode hex="E058"/>
  <outline>
    <contour>
      <point x="855" y="220" type="curve" smooth="yes"/>
      <point x="855" y="306"/>
      <point x="825" y="384"/>
      <point x="774" y="445" type="curve"/>
      <point x="809" y="547"/>
      <point x="786" y="664"/>
      <point x="705" y="745" type="curve" smooth="yes"/>
      <point x="689" y="761"/>
      <point x="664" y="761"/>
      <point x="649" y="745" type="curve" smooth="yes"/>
      <point x="633" y="729"/>
      <point x="633" y="704"/>
      <point x="648" y="688" type="curve" smooth="yes"/>
      <point x="698" y="639"/>
      <point x="717" y="572"/>
      <point x="708" y="508" type="curve"/>
      <point x="649" y="550"/>
      <point x="578" y="575"/>
      <point x="500" y="575" type="curve" smooth="yes"/>
      <point x="422" y="575"/>
      <point x="351" y="550"/>
      <point x="292" y="508" type="curve"/>
      <point x="283" y="572"/>
      <point x="302" y="639"/>
      <point x="352" y="688" type="curve" smooth="yes"/>
      <point x="367" y="704"/>
      <point x="367" y="729"/>
      <point x="351" y="745" type="curve" smooth="yes"/>
      <point x="336" y="761"/>
      <point x="311" y="761"/>
      <point x="295" y="745" type="curve" smooth="yes"/>
      <point x="214" y="664"/>
      <point x="191" y="547"/>
      <point x="226" y="445" type="curve"/>
      <point x="175" y="384"/>
      <point x="145" y="306"/>
      <point x="145" y="220" type="curve" smooth="yes"/>
      <point x="145" y="24"/>
      <point x="304" y="-135"/>
      <point x="500" y="-135" type="curve" smooth="yes"/>
      <point x="696" y="-135"/>
      <point x="855" y="24"/>
    </contour>
    <contour>
      <point x="575" y="75" type="curve" smooth="yes"/>
      <point x="575" y="33.22222222222222"/>
      <point x="541.7777777777778" y="0"/>
      <point x="500" y="0" type="curve" smooth="yes"/>
      <point x="458.22222222222223" y="0"/>
      <point x="425" y="33.22222222222222"/>
      <point x="425" y="75" type="curve" smooth="yes"/>
      <point x="425" y="116.77777777777777"/>
      <point x="458.22222222222223" y="150"/>
      <point x="500" y="150" type="curve" smooth="yes"/>
      <point x="541.7777777777778" y="150"/>
      <point x="575" y="116.77777777777777"/>
    </contour>
    <contour>
      <point x="630" y="310" type="curve" smooth="yes"/>
      <point x="630" y="237.9111111111111"/>
      <point x="572.0888888888888" y="180"/>
      <point x="500" y="180" type="curve" smooth="yes"/>
      <point x="427.9111111111111" y="180"/>
      <point x="370" y="237.9111111111111"/>
      <point x="370" y="310" type="curve" smooth="yes"/>
      <point x="370" y="382.0888888888889"/>
      <point x="427.9111111111111" y="440"/>
      <point x="500" y="440" type="curve" smooth="yes"/>
      <point x="572.0888888888888" y="440"/>
      <point x="630" y="382.0888888888889"/>
    </contour>
  </outline>
</glyph>
<glyph name="uniE059" format="2">
  <advance width="1000"/>
  <unicode hex="E059"/>
  <outline>
    <contour>
      <point x="160" y="375" type="line"/>
      <point x="140.33333333333331" y="375"/>
      <point x="125" y="359.6666666666667"/>
      <point x="125" y="340" type="curve" smooth="yes"/>
      <point x="125" y="320.3333333333333"/>
      <point x="140.33333333333331" y="305"/>
      <point x="160" y="305" type="curve"/>
      <point x="250" y="305" type="line"/>
      <point x="269.6666666666667" y="305"/>
      <point x="285" y="320.3333333333333"/>
      <point x="285" y="340" type="curve" smooth="yes"/>
      <point x="285" y="359.6666666666667"/>
      <point x="269.6666666666667" y="375"/>
      <point x="250" y="375" type="curve"/>
    </contour>
    <contour>
      <point x="750" y="375" type="line"/>
      <point x="730.3333333333334" y="375"/>
      <point x="715" y="359.6666666666667"/>
      <point x="715" y="340" type="curve" smooth="yes"/>
      <point x="715" y="320.3333333333333"/>
      <point x="730.3333333333334" y="305"/>
      <point x="750" y="305" type="curve"/>
      <point x="840" y="305" type="line"/>
      <point x="859.6666666666666" y="305"/>
      <point x="875" y="320.3333333333333"/>
      <point x="875" y="340" type="curve" smooth="yes"/>
      <point x="875" y="359.6666666666667"/>
      <point x="859.6666666666666" y="375"/>
      <point x="840" y="375" type="curve"/>
    </contour>
    <contour>
      <point x="980" y="340" type="curve" smooth="yes"/>
      <point x="980" y="604.9777777777778"/>
      <point x="764.9777777777778" y="820"/>
      <point x="500" y="820" type="curve" smooth="yes"/>
      <point x="235.02222222222224" y="820"/>
      <point x="20" y="604.9777777777778"/>
      <point x="20" y="340" type="curve" smooth="yes"/>
      <point x="20" y="75.02222222222224"/>
      <point x="235.02222222222224" y="-140"/>
      <point x="500" y="-140" type="curve" smooth="yes"/>
      <point x="764.9777777777778" y="-140"/>
      <point x="980" y="75.02222222222224"/>
    </contour>
    <contour>
      <point x="910" y="340" type="curve" smooth="yes"/>
      <point x="910" y="113.6"/>
      <point x="726.4" y="-70"/>
      <point x="500" y="-70" type="curve" smooth="yes"/>
      <point x="273.6" y="-70"/>
      <point x="90" y="113.6"/>
      <point x="90" y="340" type="curve" smooth="yes"/>
      <point x="90" y="566.4"/>
      <point x="273.6" y="750"/>
      <point x="500" y="750" type="curve" smooth="yes"/>
      <point x="726.4" y="750"/>
      <point x="910" y="566.4"/>
    </contour>
    <contour>
      <point x="680" y="340" type="curve" smooth="yes"/>
      <point x="680" y="439.64444444444445"/>
      <point x="599.6444444444444" y="520"/>
      <point x="500" y="520" type="curve" smooth="yes"/>
      <point x="400.35555555555555" y="520"/>
      <point x="320" y="439.64444444444445"/>
      <point x="320" y="340" type="curve" smooth="yes"/>
      <point x="320" y="240.35555555555555"/>
      <point x="400.35555555555555" y="160"/>
      <point x="500" y="160" type="curve" smooth="yes"/>
      <point x="599.6444444444444" y="160"/>
      <point x="680" y="240.35555555555555"/>
    </contour>
    <contour>
      <point x="610" y="340" type="curve" smooth="yes"/>
      <point x="610" y="278.93333333333334"/>
      <point x="561.0666666666666" y="230"/>
      <point x="500" y="230" type="curve" smooth="yes"/>
      <point x="438.93333333333334" y="230"/>
      <point x="390" y="278.93333333333334"/>
      <point x="390" y="340" type="curve" smooth="yes"/>
      <point x="390" y="401.06666666666666"/>
      <point x="438.93333333333334" y="450"/>
      <point x="500" y="450" type="curve" smooth="yes"/>
      <point x="561.0666666666666" y="450"/>
      <point x="610" y="401.06666666666666"/>
    </contour>
  </outline>
</glyph>
<glyph name="uniE05A" format="2">
  <advance width="1000"/>
  <unicode hex="E05A"/>
  <outline>
    <contour>
      <point x="296" y="342" type="curve"/>
      <point x="208" y="354"/>
      <point x="140" y="429"/>
      <point x="140" y="520" type="curve" smooth="yes"/>
      <point x="140" y="620"/>
      <point x="220" y="700"/>
      <point x="320" y="700" type="curve" smooth="yes"/>
      <point x="411" y="700"/>
      <point x="486" y="632"/>
      <point x="498" y="544" type="curve"/>
      <point x="404" y="510"/>
      <point x="330" y="436"/>
    </contour>
    <contour>
      <point x="576" y="563" type="curve"/>
      <point x="556" y="686"/>
      <point x="449" y="780"/>
      <point x="320" y="780" type="curve" smooth="yes"/>
      <point x="176" y="780"/>
      <point x="60" y="664"/>
      <point x="60" y="520" type="curve" smooth="yes"/>
      <point x="60" y="391"/>
      <point x="154" y="284"/>
      <point x="277" y="264" type="curve"/>
      <point x="276" y="251"/>
      <point x="275" y="238"/>
      <point x="275" y="225" type="curve" smooth="yes"/>
      <point x="275" y="37"/>
      <point x="427" y="-115"/>
      <point x="615" y="-115" type="curve" smooth="yes"/>
      <point x="803" y="-115"/>
      <point x="955" y="37"/>
      <point x="955" y="225" type="curve" smooth="yes"/>
      <point x="955" y="413"/>
      <point x="803" y="565"/>
      <point x="615" y="565" type="curve" smooth="yes"/>
      <point x="602" y="565"/>
      <point x="589" y="564"/>
    </contour>
  </outline>
</glyph>
<glyph name="uniE05B" format="2">
  <advance width="1000"/>
  <unicode hex="E05B"/>
  <outline>
    <contour>
      <point x="955" y="225" type="curve" smooth="yes"/>
      <point x="955" y="413"/>
      <point x="803" y="565"/>
      <point x="615" y="565" type="curve" smooth="yes"/>
      <point x="602" y="565"/>
      <point x="589" y="564"/>
      <point x="576" y="563" type="curve"/>
      <point x="556" y="686"/>
      <point x="449" y="780"/>
      <point x="320" y="780" type="curve" smooth="yes"/>
      <point x="176" y="780"/>
      <point x="60" y="664"/>
      <point x="60" y="520" type="curve" smooth="yes"/>
      <point x="60" y="391"/>
      <point x="154" y="284"/>
      <point x="277" y="264" type="curve"/>
      <point x="276" y="251"/>
      <point x="275" y="238"/>
      <point x="275" y="225" type="curve" smooth="yes"/>
      <point x="275" y="37"/>
      <point x="427" y="-115"/>
      <point x="615" y="-115" type="curve" smooth="yes"/>
      <point x="803" y="-115"/>
      <point x="955" y="37"/>
    </contour>
    <contour>
      <point x="875" y="225" type="curve" smooth="yes"/>
      <point x="875" y="81"/>
      <point x="759" y="-35"/>
      <point x="615" y="-35" type="curve" smooth="yes"/>
      <point x="471" y="-35"/>
      <point x="355" y="81"/>
      <point x="355" y="225" type="curve" smooth="yes"/>
      <point x="355" y="369"/>
      <point x="471" y="485"/>
      <point x="615" y="485" type="curve" smooth="yes"/>
      <point x="759" y="485"/>
      <point x="875" y="369"/>
    </contour>
  </outline>
</glyph>
<glyph name="uniE05D" format="2">
  <advance width="1000"/>
  <unicode hex="E05D"/>
  <outline>
    <contour>
      <point x="280" y="340" type="curve" smooth="yes"/>
      <point x="280" y="295"/>
      <point x="245" y="260"/>
      <point x="200" y="260" type="curve" smooth="yes"/>
      <point x="155" y="260"/>
      <point x="120" y="295"/>
      <point x="120" y="340" type="curve" smooth="yes"/>
      <point x="120" y="385"/>
      <point x="155" y="420"/>
      <point x="200" y="420" type="curve" smooth="yes"/>
      <point x="245" y="420"/>
      <point x="280" y="385"/>
    </contour>
    <contour>
      <point x="880" y="340" type="curve" smooth="yes"/>
      <point x="880" y="295"/>
      <point x="845" y="260"/>
      <point x="800" y="260" type="curve" smooth="yes"/>
      <point x="755" y="260"/>
      <point x="720" y="295"/>
      <point x="720" y="340" type="curve" smooth="yes"/>
      <point x="720" y="385"/>
      <point x="755" y="420"/>
      <point x="800" y="420" type="curve" smooth="yes"/>
      <point x="845" y="420"/>
      <point x="880" y="385"/>
    </contour>
    <contour>
      <point x="980" y="340" type="curve" smooth="yes"/>
      <point x="980" y="592"/>
      <point x="786" y="798"/>
      <point x="540" y="818" type="curve"/>
      <point x="540" y="437" type="line"/>
      <point x="702" y="598" type="line" smooth="yes"/>
      <point x="717" y="614"/>
      <point x="742" y="614"/>
      <point x="758" y="598" type="curve" smooth="yes"/>
      <point x="774" y="582"/>
      <point x="774" y="557"/>
      <point x="758" y="542" type="curve" smooth="yes"/>
      <point x="557" y="340" type="line"/>
      <point x="758" y="138" type="line" smooth="yes"/>
      <point x="774" y="123"/>
      <point x="774" y="98"/>
      <point x="758" y="82" type="curve" smooth="yes"/>
      <point x="742" y="66"/>
      <point x="717" y="66"/>
      <point x="702" y="82" type="curve" smooth="yes"/>
      <point x="540" y="243" type="line"/>
      <point x="540" y="-138" type="line"/>
      <point x="786" y="-118"/>
      <point x="980" y="88"/>
    </contour>
    <contour>
      <point x="460" y="-23" type="line"/>
      <point x="460" y="243" type="line"/>
      <point x="327" y="110" type="line"/>
    </contour>
    <contour>
      <point x="460" y="-136" type="line"/>
      <point x="242" y="82" type="line" smooth="yes"/>
      <point x="234" y="90"/>
      <point x="230" y="100"/>
      <point x="230" y="110" type="curve" smooth="yes"/>
      <point x="230" y="120"/>
      <point x="234" y="130"/>
      <point x="242" y="138" type="curve" smooth="yes"/>
      <point x="443" y="340" type="line"/>
      <point x="242" y="542" type="line" smooth="yes"/>
      <point x="234" y="550"/>
      <point x="230" y="560"/>
      <point x="230" y="570" type="curve" smooth="yes"/>
      <point x="230" y="580"/>
      <point x="234" y="590"/>
      <point x="242" y="598" type="curve" smooth="yes"/>
      <point x="460" y="816" type="line"/>
      <point x="460" y="818" type="line"/>
      <point x="214" y="798"/>
      <point x="20" y="592"/>
      <point x="20" y="340" type="curve" smooth="yes"/>
      <point x="20" y="88"/>
      <point x="214" y="-118"/>
      <point x="460" y="-138" type="curve"/>
    </contour>
    <contour>
      <point x="460" y="437" type="line"/>
      <point x="460" y="703" type="line"/>
      <point x="327" y="570" type="line"/>
    </contour>
  </outline>
</glyph>
<glyph name="uniE05F" format="2">
  <advance width="1000"/>
  <unicode hex="E05F"/>
  <outline>
    <contour>
      <point x="980" y="340" type="curve" smooth="yes"/>
      <point x="980" y="605"/>
      <point x="765" y="820"/>
      <point x="500" y="820" type="curve" smooth="yes"/>
      <point x="235" y="820"/>
      <point x="20" y="605"/>
      <point x="20" y="340" type="curve" smooth="yes"/>
      <point x="20" y="75"/>
      <point x="235" y="-140"/>
      <point x="500" y="-140" type="curve" smooth="yes"/>
      <point x="765" y="-140"/>
      <point x="980" y="75"/>
    </contour>
    <contour>
      <point x="302" y="607" type="curve"/>
      <point x="480" y="786" type="line"/>
      <point x="485" y="791"/>
      <point x="491" y="795"/>
      <point x="500" y="795" type="curve" smooth="yes"/>
      <point x="514" y="795"/>
      <point x="525" y="784"/>
      <point x="525" y="770" type="curve"/>
      <point x="525" y="436" type="line"/>
      <point x="691" y="602" type="line"/>
      <point x="711" y="621"/>
      <point x="742" y="621"/>
      <point x="762" y="602" type="curve" smooth="yes"/>
      <point x="781" y="582"/>
      <point x="781" y="551"/>
      <point x="762" y="531" type="curve" smooth="yes"/>
      <point x="571" y="340" type="line"/>
      <point x="762" y="149" type="line" smooth="yes"/>
      <point x="781" y="129"/>
      <point x="781" y="98"/>
      <point x="762" y="78" type="curve" smooth="yes"/>
      <point x="742" y="59"/>
      <point x="711" y="59"/>
      <point x="691" y="78" type="curve" smooth="yes"/>
      <point x="525" y="244" type="line"/>
      <point x="525" y="-90" type="line"/>
      <point x="525" y="-102"/>
      <point x="514" y="-115"/>
      <point x="500" y="-115" type="curve" smooth="yes"/>
      <point x="491" y="-115"/>
      <point x="485" y="-111"/>
      <point x="480" y="-106" type="curve"/>
      <point x="302" y="73" type="line"/>
      <point x="283" y="59"/>
      <point x="256" y="61"/>
      <point x="238" y="78" type="curve" smooth="yes"/>
      <point x="219" y="98"/>
      <point x="219" y="129"/>
      <point x="238" y="149" type="curve" smooth="yes"/>
      <point x="429" y="340" type="line"/>
      <point x="238" y="531" type="line" smooth="yes"/>
      <point x="219" y="551"/>
      <point x="219" y="582"/>
      <point x="238" y="602" type="curve" smooth="yes"/>
      <point x="256" y="619"/>
      <point x="283" y="621"/>
    </contour>
    <contour>
      <point x="338" y="107" type="line"/>
      <point x="475" y="-30" type="line"/>
      <point x="475" y="244" type="line"/>
    </contour>
    <contour>
      <point x="338" y="573" type="line"/>
      <point x="475" y="436" type="line"/>
      <point x="475" y="710" type="line"/>
    </contour>
  </outline>
</glyph>
<glyph name="uniE060" format="2">
  <advance width="1000"/>
  <unicode hex="E060"/>
  <outline>
    <contour>
      <point x="590" y="340" type="curve" smooth="yes"/>
      <point x="590" y="390.0444444444444"/>
      <point x="550.0444444444445" y="430"/>
      <point x="500" y="430" type="curve" smooth="yes"/>
      <point x="449.9555555555556" y="430"/>
      <point x="410" y="390.0444444444444"/>
      <point x="410" y="340" type="curve" smooth="yes"/>
      <point x="410" y="289.9555555555556"/>
      <point x="449.9555555555556" y="250"/>
      <point x="500" y="250" type="curve" smooth="yes"/>
      <point x="550.0444444444445" y="250"/>
      <point x="590" y="289.9555555555556"/>
    </contour>
    <contour>
      <point x="980" y="340" type="curve" smooth="yes"/>
      <point x="980" y="604.9777777777778"/>
      <point x="764.9777777777778" y="820"/>
      <point x="500" y="820" type="curve" smooth="yes"/>
      <point x="235.02222222222224" y="820"/>
      <point x="20" y="604.9777777777778"/>
      <point x="20" y="340" type="curve" smooth="yes"/>
      <point x="20" y="75.02222222222224"/>
      <point x="235.02222222222224" y="-140"/>
      <point x="500" y="-140" type="curve" smooth="yes"/>
      <point x="764.9777777777778" y="-140"/>
      <point x="980" y="75.02222222222224"/>
    </contour>
    <contour>
      <point x="920" y="340" type="curve" smooth="yes"/>
      <point x="920" y="108.0888888888889"/>
      <point x="731.911111111111" y="-80"/>
      <point x="500" y="-80" type="curve" smooth="yes"/>
      <point x="268.0888888888889" y="-80"/>
      <point x="80" y="108.0888888888889"/>
      <point x="80" y="340" type="curve" smooth="yes"/>
      <point x="80" y="571.911111111111"/>
      <point x="268.0888888888889" y="760"/>
      <point x="500" y="760" type="curve" smooth="yes"/>
      <point x="731.911111111111" y="760"/>
      <point x="920" y="571.911111111111"/>
    </contour>
    <contour>
      <point x="850" y="340" type="curve" smooth="yes"/>
      <point x="850" y="533.3333333333333"/>
      <point x="693.3333333333333" y="690"/>
      <point x="500" y="690" type="curve" smooth="yes"/>
      <point x="306.6666666666667" y="690"/>
      <point x="150" y="533.3333333333333"/>
      <point x="150" y="340" type="curve" smooth="yes"/>
      <point x="150" y="146.66666666666669"/>
      <point x="306.6666666666667" y="-10"/>
      <point x="500" y="-10" type="curve" smooth="yes"/>
      <point x="693.3333333333333" y="-10"/>
      <point x="850" y="146.66666666666669"/>
    </contour>
    <contour>
      <point x="790" y="340" type="curve" smooth="yes"/>
      <point x="790" y="179.73333333333335"/>
      <point x="660.2666666666667" y="50"/>
      <point x="500" y="50" type="curve" smooth="yes"/>
      <point x="339.73333333333335" y="50"/>
      <point x="210" y="179.73333333333335"/>
      <point x="210" y="340" type="curve" smooth="yes"/>
      <point x="210" y="500.26666666666665"/>
      <point x="339.73333333333335" y="630"/>
      <point x="500" y="630" type="curve" smooth="yes"/>
      <point x="660.2666666666667" y="630"/>
      <point x="790" y="500.26666666666665"/>
    </contour>
    <contour>
      <point x="720" y="340" type="curve" smooth="yes"/>
      <point x="720" y="461.68888888888887"/>
      <point x="621.6888888888889" y="560"/>
      <point x="500" y="560" type="curve" smooth="yes"/>
      <point x="378.31111111111113" y="560"/>
      <point x="280" y="461.68888888888887"/>
      <point x="280" y="340" type="curve" smooth="yes"/>
      <point x="280" y="218.31111111111113"/>
      <point x="378.31111111111113" y="120"/>
      <point x="500" y="120" type="curve" smooth="yes"/>
      <point x="621.6888888888889" y="120"/>
      <point x="720" y="218.31111111111113"/>
    </contour>
    <contour>
      <point x="660" y="340" type="curve" smooth="yes"/>
      <point x="660" y="251.3777777777778"/>
      <point x="588.6222222222223" y="180"/>
      <point x="500" y="180" type="curve" smooth="yes"/>
      <point x="411.3777777777778" y="180"/>
      <point x="340" y="251.3777777777778"/>
      <point x="340" y="340" type="curve" smooth="yes"/>
      <point x="340" y="428.6222222222222"/>
      <point x="411.3777777777778" y="500"/>
      <point x="500" y="500" type="curve" smooth="yes"/>
      <point x="588.6222222222223" y="500"/>
      <point x="660" y="428.6222222222222"/>
    </contour>
  </outline>
</glyph>
<glyph name="uniE061" format="2">
  <advance width="1000"/>
  <unicode hex="E061"/>
  <outline>
    <contour>
      <point x="590" y="340" type="curve" smooth="yes"/>
      <point x="590" y="390.0444444444444"/>
      <point x="550.0444444444445" y="430"/>
      <point x="500" y="430" type="curve" smooth="yes"/>
      <point x="449.9555555555556" y="430"/>
      <point x="410" y="390.0444444444444"/>
      <point x="410" y="340" type="curve" smooth="yes"/>
      <point x="410" y="289.9555555555556"/>
      <point x="449.9555555555556" y="250"/>
      <point x="500" y="250" type="curve" smooth="yes"/>
      <point x="550.0444444444445" y="250"/>
      <point x="590" y="289.9555555555556"/>
    </contour>
    <contour>
      <point x="980" y="340" type="curve" smooth="yes"/>
      <point x="980" y="604.9777777777778"/>
      <point x="764.9777777777778" y="820"/>
      <point x="500" y="820" type="curve" smooth="yes"/>
      <point x="235.02222222222224" y="820"/>
      <point x="20" y="604.9777777777778"/>
      <point x="20" y="340" type="curve" smooth="yes"/>
      <point x="20" y="75.02222222222224"/>
      <point x="235.02222222222224" y="-140"/>
      <point x="500" y="-140" type="curve" smooth="yes"/>
      <point x="764.9777777777778" y="-140"/>
      <point x="980" y="75.02222222222224"/>
    </contour>
    <contour>
      <point x="920" y="340" type="curve" smooth="yes"/>
      <point x="920" y="108.0888888888889"/>
      <point x="731.911111111111" y="-80"/>
      <point x="500" y="-80" type="curve" smooth="yes"/>
      <point x="268.0888888888889" y="-80"/>
      <point x="80" y="108.0888888888889"/>
      <point x="80" y="340" type="curve" smooth="yes"/>
      <point x="80" y="571.911111111111"/>
      <point x="268.0888888888889" y="760"/>
      <point x="500" y="760" type="curve" smooth="yes"/>
      <point x="731.911111111111" y="760"/>
      <point x="920" y="571.911111111111"/>
    </contour>
  </outline>
</glyph>
<glyph name="uniE062" format="2">
  <advance width="1000"/>
  <unicode hex="E062"/>
  <outline>
    <contour>
      <point x="790" y="470" type="curve" smooth="yes"/>
      <point x="790" y="630.2666666666667"/>
      <point x="660.2666666666667" y="760"/>
      <point x="500" y="760" type="curve" smooth="yes"/>
      <point x="339.73333333333335" y="760"/>
      <point x="210" y="630.2666666666667"/>
      <point x="210" y="470" type="curve" smooth="yes"/>
      <point x="210" y="309.73333333333335"/>
      <point x="339.73333333333335" y="180"/>
      <point x="500" y="180" type="curve" smooth="yes"/>
      <point x="660.2666666666667" y="180"/>
      <point x="790" y="309.73333333333335"/>
    </contour>
    <contour>
      <point x="600" y="550" type="curve" smooth="yes"/>
      <point x="600" y="494.44444444444446"/>
      <point x="555.5555555555555" y="450"/>
      <point x="500" y="450" type="curve" smooth="yes"/>
      <point x="444.44444444444446" y="450"/>
      <point x="400" y="494.44444444444446"/>
      <point x="400" y="550" type="curve" smooth="yes"/>
      <point x="400" y="605.5555555555555"/>
      <point x="444.44444444444446" y="650"/>
      <point x="500" y="650" type="curve" smooth="yes"/>
      <point x="555.5555555555555" y="650"/>
      <point x="600" y="605.5555555555555"/>
    </contour>
    <contour>
      <point x="340" y="65" type="curve" smooth="yes"/>
      <point x="340" y="126.06666666666666"/>
      <point x="291.06666666666666" y="175"/>
      <point x="230" y="175" type="curve" smooth="yes"/>
      <point x="168.93333333333334" y="175"/>
      <point x="120" y="126.06666666666666"/>
      <point x="120" y="65" type="curve" smooth="yes"/>
      <point x="120" y="3.933333333333337"/>
      <point x="168.93333333333334" y="-45"/>
      <point x="230" y="-45" type="curve" smooth="yes"/>
      <point x="291.06666666666666" y="-45"/>
      <point x="340" y="3.933333333333337"/>
    </contour>
    <contour>
      <point x="880" y="65" type="curve" smooth="yes"/>
      <point x="880" y="126.06666666666666"/>
      <point x="831.0666666666666" y="175"/>
      <point x="770" y="175" type="curve" smooth="yes"/>
      <point x="708.9333333333334" y="175"/>
      <point x="660" y="126.06666666666666"/>
      <point x="660" y="65" type="curve" smooth="yes"/>
      <point x="660" y="3.933333333333337"/>
      <point x="708.9333333333334" y="-45"/>
      <point x="770" y="-45" type="curve" smooth="yes"/>
      <point x="831.0666666666666" y="-45"/>
      <point x="880" y="3.933333333333337"/>
    </contour>
  </outline>
</glyph>
<glyph name="uniE063" format="2">
  <advance width="1000"/>
  <unicode hex="E063"/>
  <outline>
    <contour>
      <point x="660" y="340" type="curve" smooth="yes"/>
      <point x="660" y="428.6222222222222"/>
      <point x="588.6222222222223" y="500"/>
      <point x="500" y="500" type="curve" smooth="yes"/>
      <point x="411.3777777777778" y="500"/>
      <point x="340" y="428.6222222222222"/>
      <point x="340" y="340" type="curve" smooth="yes"/>
      <point x="340" y="251.3777777777778"/>
      <point x="411.3777777777778" y="180"/>
      <point x="500" y="180" type="curve" smooth="yes"/>
      <point x="588.6222222222223" y="180"/>
      <point x="660" y="251.3777777777778"/>
    </contour>
    <contour>
      <point x="980" y="340" type="curve" smooth="yes"/>
      <point x="980" y="604.9777777777778"/>
      <point x="764.9777777777778" y="820"/>
      <point x="500" y="820" type="curve" smooth="yes"/>
      <point x="235.02222222222224" y="820"/>
      <point x="20" y="604.9777777777778"/>
      <point x="20" y="340" type="curve" smooth="yes"/>
      <point x="20" y="75.02222222222224"/>
      <point x="235.02222222222224" y="-140"/>
      <point x="500" y="-140" type="curve" smooth="yes"/>
      <point x="764.9777777777778" y="-140"/>
      <point x="980" y="75.02222222222224"/>
    </contour>
    <contour>
      <point x="900" y="340" type="curve" smooth="yes"/>
      <point x="900" y="119.11111111111111"/>
      <point x="720.8888888888889" y="-60"/>
      <point x="500" y="-60" type="curve" smooth="yes"/>
      <point x="279.1111111111111" y="-60"/>
      <point x="100" y="119.11111111111111"/>
      <point x="100" y="340" type="curve" smooth="yes"/>
      <point x="100" y="560.8888888888889"/>
      <point x="279.1111111111111" y="740"/>
      <point x="500" y="740" type="curve" smooth="yes"/>
      <point x="720.8888888888889" y="740"/>
      <point x="900" y="560.8888888888889"/>
    </contour>
    <contour>
      <point x="805" y="340" type="curve" smooth="yes"/>
      <point x="805" y="508.5333333333333"/>
      <point x="668.5333333333333" y="645"/>
      <point x="500" y="645" type="curve" smooth="yes"/>
      <point x="331.4666666666667" y="645"/>
      <point x="195" y="508.5333333333333"/>
      <point x="195" y="340" type="curve" smooth="yes"/>
      <point x="195" y="171.46666666666667"/>
      <point x="331.4666666666667" y="35"/>
      <point x="500" y="35" type="curve" smooth="yes"/>
      <point x="668.5333333333333" y="35"/>
      <point x="805" y="171.46666666666667"/>
    </contour>
    <contour>
      <point x="755" y="340" type="curve" smooth="yes"/>
      <point x="755" y="199.02222222222224"/>
      <point x="640.9777777777778" y="85"/>
      <point x="500" y="85" type="curve" smooth="yes"/>
      <point x="359.02222222222224" y="85"/>
      <point x="245" y="199.02222222222224"/>
      <point x="245" y="340" type="curve" smooth="yes"/>
      <point x="245" y="480.97777777777776"/>
      <point x="359.02222222222224" y="595"/>
      <point x="500" y="595" type="curve" smooth="yes"/>
      <point x="640.9777777777778" y="595"/>
      <point x="755" y="480.97777777777776"/>
    </contour>
  </outline>
</glyph>
<glyph name="uniE080" format="2">
  <advance width="1000"/>
  <unicode hex="E080"/>
  <outline>
    <contour>
      <point x="960" y="340" type="curve" smooth="yes"/>
      <point x="960" y="594"/>
      <point x="754" y="800"/>
      <point x="500" y="800" type="curve" smooth="yes"/>
      <point x="246" y="800"/>
      <point x="40" y="594"/>
      <point x="40" y="340" type="curve" smooth="yes"/>
      <point x="40" y="86"/>
      <point x="246" y="-120"/>
      <point x="500" y="-120" type="curve" smooth="yes"/>
      <point x="754" y="-120"/>
      <point x="960" y="86"/>
    </contour>
    <contour>
      <point x="820" y="340" type="curve" smooth="yes"/>
      <point x="820" y="163"/>
      <point x="677" y="20"/>
      <point x="500" y="20" type="curve" smooth="yes"/>
      <point x="323" y="20"/>
      <point x="180" y="163"/>
      <point x="180" y="340" type="curve" smooth="yes"/>
      <point x="180" y="517"/>
      <point x="323" y="660"/>
      <point x="500" y="660" type="curve" smooth="yes"/>
      <point x="677" y="660"/>
      <point x="820" y="517"/>
    </contour>
  </outline>
</glyph>
<glyph name="uniE081" format="2">
  <advance width="1000"/>
  <unicode hex="E081"/>
  <outline>
    <contour>
      <point x="500" y="800" type="curve" smooth="yes"/>
      <point x="246" y="800"/>
      <point x="40" y="594"/>
      <point x="40" y="340" type="curve" smooth="yes"/>
      <point x="40" y="86"/>
      <point x="246" y="-120"/>
      <point x="500" y="-120" type="curve" smooth="yes"/>
      <point x="754" y="-120"/>
      <point x="960" y="86"/>
      <point x="960" y="340" type="curve" smooth="yes"/>
      <point x="960" y="467"/>
      <point x="908" y="582"/>
      <point x="825" y="665" type="curve" smooth="yes"/>
      <point x="798" y="693"/>
      <point x="754" y="692"/>
      <point x="726" y="665" type="curve" smooth="yes"/>
      <point x="699" y="638"/>
      <point x="699" y="594"/>
      <point x="726" y="566" type="curve" smooth="yes"/>
      <point x="784" y="508"/>
      <point x="820" y="428"/>
      <point x="820" y="340" type="curve" smooth="yes"/>
      <point x="820" y="163"/>
      <point x="677" y="20"/>
      <point x="500" y="20" type="curve" smooth="yes"/>
      <point x="323" y="20"/>
      <point x="180" y="163"/>
      <point x="180" y="340" type="curve" smooth="yes"/>
      <point x="180" y="517"/>
      <point x="323" y="660"/>
      <point x="500" y="660" type="curve" smooth="yes"/>
      <point x="539" y="660"/>
      <point x="570" y="691"/>
      <point x="570" y="730" type="curve" smooth="yes"/>
      <point x="570" y="769"/>
      <point x="539" y="800"/>
    </contour>
  </outline>
</glyph>
<glyph name="uniE083" format="2">
  <advance width="1000"/>
  <unicode hex="E083"/>
  <outline>
    <contour>
      <point x="500" y="800" type="curve" smooth="yes"/>
      <point x="246" y="800"/>
      <point x="40" y="594"/>
      <point x="40" y="340" type="curve" smooth="yes"/>
      <point x="40" y="86"/>
      <point x="246" y="-120"/>
      <point x="500" y="-120" type="curve" smooth="yes"/>
      <point x="627" y="-120"/>
      <point x="742" y="-68"/>
      <point x="825" y="15" type="curve" smooth="yes"/>
      <point x="853" y="42"/>
      <point x="852" y="86"/>
      <point x="825" y="114" type="curve" smooth="yes"/>
      <point x="798" y="141"/>
      <point x="754" y="141"/>
      <point x="726" y="114" type="curve" smooth="yes"/>
      <point x="668" y="56"/>
      <point x="588" y="20"/>
      <point x="500" y="20" type="curve" smooth="yes"/>
      <point x="323" y="20"/>
      <point x="180" y="163"/>
      <point x="180" y="340" type="curve" smooth="yes"/>
      <point x="180" y="517"/>
      <point x="323" y="660"/>
      <point x="500" y="660" type="curve" smooth="yes"/>
      <point x="539" y="660"/>
      <point x="570" y="691"/>
      <point x="570" y="730" type="curve" smooth="yes"/>
      <point x="570" y="769"/>
      <point x="539" y="800"/>
    </contour>
  </outline>
</glyph>
<glyph name="uniE088" format="2">
  <advance width="1000"/>
  <unicode hex="E088"/>
  <outline>
    <contour>
      <point x="570" y="730" type="curve" smooth="yes"/>
      <point x="570" y="769.0222222222222"/>
      <point x="539.0222222222222" y="800"/>
      <point x="500" y="800" type="curve" smooth="yes"/>
      <point x="460.97777777777776" y="800"/>
      <point x="430" y="769.0222222222222"/>
      <point x="430" y="730" type="curve" smooth="yes"/>
      <point x="430" y="690.9777777777778"/>
      <point x="460.97777777777776" y="660"/>
      <point x="500" y="660" type="curve" smooth="yes"/>
      <point x="539.0222222222222" y="660"/>
      <point x="570" y="690.9777777777778"/>
    </contour>
  </outline>
</glyph>
<glyph name="arc.component" format="2">
  <advance width="1000"/>
  <outline>
    <contour>
      <point x="500" y="0" type="curve" smooth="yes"/>
      <point x="500" y="276"/>
      <point x="276" y="500"/>
      <point x="0" y="500" type="curve" smooth="yes"/>
      <point x="-137" y="500"/>
      <point x="-247" y="389"/>
      <point x="-247" y="253" type="curve" smooth="yes"/>
      <point x="-247" y="116"/>
      <point x="-137" y="5"/>
      <point x="0" y="5" type="curve" smooth="yes"/>
      <point x="3" y="5"/>
      <point x="5" y="3"/>
      <point x="5" y="0" type="curve" smooth="yes"/>
      <point x="5" y="-137"/>
      <point x="116" y="-247"/>
      <point x="253" y="-247" type="curve" smooth="yes"/>
      <point x="389" y="-247"/>
      <point x="500" y="-137"/>
    </contour>
  </outline>
</glyph>
<glyph name="circle_inner.component" format="2">
  <advance width="1000"/>
  <outline>
    <contour>
      <point x="50" y="0" type="curve" smooth="yes"/>
      <point x="50" y="-28"/>
      <point x="28" y="-50"/>
      <point x="0" y="-50" type="curve" smooth="yes"/>
      <point x="-28" y="-50"/>
      <point x="-50" y="-28"/>
      <point x="-50" y="0" type="curve" smooth="yes"/>
      <point x="-50" y="28"/>
      <point x="-28" y="50"/>
      <point x="0" y="50" type="curve" smooth="yes"/>
      <point x="28" y="50"/>
      <point x="50" y="28"/>
    </contour>
  </outline>
</glyph>
<glyph name="line.component" format="2">
  <advance width="1000"/>
  <outline>
    <contour>
      <point x="-250" y="50" type="line"/>
      <point x="-278" y="50"/>
      <point x="-300" y="28"/>
      <point x="-300" y="0" type="curve" smooth="yes"/>
      <point x="-300" y="-28"/>
      <point x="-278" y="-50"/>
      <point x="-250" y="-50" type="curve"/>
      <point x="250" y="-50" type="line"/>
      <point x="278" y="-50"/>
      <point x="300" y="-28"/>
      <point x="300" y="0" type="curve" smooth="yes"/>
      <point x="300" y="28"/>
      <point x="278" y="50"/>
      <point x="250" y="50" type="curve"/>
    </contour>
  </outline>
</glyph>
<glyph name="notes.component" format="2">
  <advance width="500"/>
  <note>
Notes Glyph

Minimum line width is 60.
Standard should be 80?
</note>
  <outline>
    <contour>
      <point x="0" y="540" type="line"/>
      <point x="280" y="540" type="line"/>
      <point x="280" y="600" type="line"/>
      <point x="0" y="600" type="line"/>
    </contour>
    <contour>
      <point x="500" y="570" type="curve" smooth="yes"/>
      <point x="500" y="553"/>
      <point x="487" y="540"/>
      <point x="470" y="540" type="curve" smooth="yes"/>
      <point x="453" y="540"/>
      <point x="440" y="553"/>
      <point x="440" y="570" type="curve" smooth="yes"/>
      <point x="440" y="587"/>
      <point x="453" y="600"/>
      <point x="470" y="600" type="curve" smooth="yes"/>
      <point x="487" y="600"/>
      <point x="500" y="587"/>
    </contour>
  </outline>
</glyph>
<glyph name="way.icon" format="2">
  <advance width="1000"/>
  <outline>
    <contour>
      <point x="475" y="-119" type="line"/>
      <point x="233" y="-106"/>
      <point x="40" y="94"/>
      <point x="40" y="340" type="curve" smooth="yes"/>
      <point x="40" y="577"/>
      <point x="220" y="773"/>
      <point x="450" y="798" type="curve"/>
      <point x="450" y="796" type="line"/>
      <point x="314" y="772"/>
      <point x="210" y="653"/>
      <point x="210" y="510" type="curve" smooth="yes"/>
      <point x="210" y="350"/>
      <point x="340" y="220"/>
      <point x="500" y="220" type="curve" smooth="yes"/>
      <point x="660" y="220"/>
      <point x="790" y="350"/>
      <point x="790" y="510" type="curve" smooth="yes"/>
      <point x="790" y="653"/>
      <point x="686" y="772"/>
      <point x="550" y="796" type="curve"/>
      <point x="550" y="798" type="line"/>
      <point x="780" y="773"/>
      <point x="960" y="577"/>
      <point x="960" y="340" type="curve" smooth="yes"/>
      <point x="960" y="94"/>
      <point x="767" y="-106"/>
      <point x="525" y="-119" type="curve"/>
      <point x="525" y="-118" type="line"/>
      <point x="591" y="-106"/>
      <point x="640" y="-49"/>
      <point x="640" y="20" type="curve" smooth="yes"/>
      <point x="640" y="98"/>
      <point x="578" y="160"/>
      <point x="500" y="160" type="curve" smooth="yes"/>
      <point x="422" y="160"/>
      <point x="360" y="98"/>
      <point x="360" y="20" type="curve" smooth="yes"/>
      <point x="360" y="-49"/>
      <point x="409" y="-106"/>
      <point x="475" y="-118" type="curve"/>
    </contour>
  </outline>
</glyph>
